<svg width="22" height="22" viewBox="0 0 22 22" fill="none" xmlns="http://www.w3.org/2000/svg">
<mask id="path-1-inside-1_855_8046" fill="white">
<path d="M11 3.5C6.85786 3.5 3.5 6.85786 3.5 11C3.5 15.1421 6.85786 18.5 11 18.5C15.1421 18.5 18.5 15.1421 18.5 11C18.5 6.85786 15.1421 3.5 11 3.5Z"/>
</mask>
<path d="M10.5 14C10.5 14.2761 10.7239 14.5 11 14.5C11.2761 14.5 11.5 14.2761 11.5 14H10.5ZM11.5 11C11.5 10.7239 11.2761 10.5 11 10.5C10.7239 10.5 10.5 10.7239 10.5 11H11.5ZM11.5 14V11H10.5V14H11.5ZM4.5 11C4.5 7.41015 7.41015 4.5 11 4.5V2.5C6.30558 2.5 2.5 6.30558 2.5 11H4.5ZM11 4.5C14.5899 4.5 17.5 7.41015 17.5 11H19.5C19.5 6.30558 15.6944 2.5 11 2.5V4.5ZM17.5 11C17.5 14.5899 14.5899 17.5 11 17.5V19.5C15.6944 19.5 19.5 15.6944 19.5 11H17.5ZM11 17.5C7.41015 17.5 4.5 14.5899 4.5 11H2.5C2.5 15.6944 6.30558 19.5 11 19.5V17.5Z" fill="#8996A3" mask="url(#path-1-inside-1_855_8046)"/>
<mask id="path-3-inside-2_855_8046" fill="white">
<path d="M10.25 8C10.25 7.58579 10.5858 7.25 11 7.25C11.4142 7.25 11.75 7.58579 11.75 8C11.75 8.41421 11.4142 8.75 11 8.75C10.5858 8.75 10.25 8.41421 10.25 8Z"/>
</mask>
<path d="M10.25 8C10.25 7.58579 10.5858 7.25 11 7.25C11.4142 7.25 11.75 7.58579 11.75 8C11.75 8.41421 11.4142 8.75 11 8.75C10.5858 8.75 10.25 8.41421 10.25 8Z" fill="#8996A3"/>
<path d="M11.25 8C11.25 8.13807 11.1381 8.25 11 8.25V6.25C10.0335 6.25 9.25 7.0335 9.25 8H11.25ZM11 8.25C10.8619 8.25 10.75 8.13807 10.75 8H12.75C12.75 7.0335 11.9665 6.25 11 6.25V8.25ZM10.75 8C10.75 7.86193 10.8619 7.75 11 7.75V9.75C11.9665 9.75 12.75 8.9665 12.75 8H10.75ZM11 7.75C11.1381 7.75 11.25 7.86193 11.25 8H9.25C9.25 8.9665 10.0335 9.75 11 9.75V7.75Z" fill="#8996A3" mask="url(#path-3-inside-2_855_8046)"/>
</svg>
