<svg width="18" height="18" viewBox="0 0 18 18" fill="none" xmlns="http://www.w3.org/2000/svg">
<mask id="path-1-inside-1" fill="white">
<path d="M4.78915 4.57051L2.57129 8.99979V12.8569C2.57129 13.1979 2.70675 13.525 2.94787 13.7661C3.18898 14.0072 3.51601 14.1426 3.857 14.1426H14.1427C14.4837 14.1426 14.8107 14.0072 15.0519 13.7661C15.293 13.525 15.4284 13.1979 15.4284 12.8569V8.99979L13.2106 4.57051C13.1041 4.3563 12.94 4.17603 12.7368 4.04997C12.5335 3.92391 12.2991 3.85706 12.0599 3.85693H5.93986C5.70066 3.85706 5.46624 3.92391 5.26296 4.04997C5.05968 4.17603 4.89559 4.3563 4.78915 4.57051Z"/>
</mask>
<path d="M15.4284 9.49979C15.7046 9.49979 15.9284 9.27593 15.9284 8.99979C15.9284 8.72365 15.7046 8.49979 15.4284 8.49979V9.49979ZM2.57129 8.49979C2.29515 8.49979 2.07129 8.72365 2.07129 8.99979C2.07129 9.27593 2.29515 9.49979 2.57129 9.49979V8.49979ZM15.4284 8.49979H2.57129V9.49979H15.4284V8.49979ZM15.4284 8.99979H16.4284C16.4284 8.84435 16.3922 8.69105 16.3226 8.55206L15.4284 8.99979ZM2.57129 8.99979L1.67712 8.55206C1.60753 8.69105 1.57129 8.84435 1.57129 8.99979H2.57129ZM4.78915 4.57051L5.68332 5.01824L5.68468 5.0155L4.78915 4.57051ZM2.57129 12.8569H1.57129H2.57129ZM13.2106 4.57051L12.315 5.01551L12.3164 5.01824L13.2106 4.57051ZM12.0599 3.85693L12.0604 2.85693H12.0599V3.85693ZM5.93986 3.85693V2.85693L5.93933 2.85693L5.93986 3.85693ZM3.89498 4.12277L1.67712 8.55206L3.46546 9.44752L5.68331 5.01824L3.89498 4.12277ZM1.57129 8.99979V12.8569H3.57129V8.99979H1.57129ZM1.57129 12.8569C1.57129 13.4631 1.8121 14.0445 2.24076 14.4732L3.65497 13.059C3.60139 13.0054 3.57129 12.9327 3.57129 12.8569H1.57129ZM2.24076 14.4732C2.66941 14.9018 3.25079 15.1426 3.857 15.1426V13.1426C3.78123 13.1426 3.70855 13.1125 3.65497 13.059L2.24076 14.4732ZM3.857 15.1426H14.1427V13.1426H3.857V15.1426ZM14.1427 15.1426C14.7489 15.1426 15.3303 14.9018 15.759 14.4732L14.3447 13.059C14.2912 13.1125 14.2185 13.1426 14.1427 13.1426V15.1426ZM15.759 14.4732C16.1876 14.0445 16.4284 13.4631 16.4284 12.8569H14.4284C14.4284 12.9327 14.3983 13.0054 14.3447 13.059L15.759 14.4732ZM16.4284 12.8569V8.99979H14.4284V12.8569H16.4284ZM16.3226 8.55206L14.1047 4.12277L12.3164 5.01824L14.5343 9.44752L16.3226 8.55206ZM14.1061 4.12551C13.9169 3.74469 13.6252 3.42422 13.2638 3.20011L12.2098 4.89983C12.2549 4.92784 12.2914 4.9679 12.315 5.0155L14.1061 4.12551ZM13.2638 3.20011C12.9024 2.97601 12.4856 2.85716 12.0604 2.85693L12.0593 4.85693C12.1125 4.85696 12.1646 4.87182 12.2098 4.89983L13.2638 3.20011ZM12.0599 2.85693H5.93986V4.85693H12.0599V2.85693ZM5.93933 2.85693C5.51409 2.85716 5.09735 2.97601 4.73595 3.20011L5.78997 4.89983C5.83514 4.87182 5.88724 4.85696 5.94039 4.85693L5.93933 2.85693ZM4.73595 3.20011C4.37456 3.42421 4.08285 3.74469 3.89362 4.12551L5.68468 5.0155C5.70833 4.9679 5.74479 4.92784 5.78997 4.89983L4.73595 3.20011Z" fill="white" mask="url(#path-1-inside-1)"/>
<path d="M5.53864 11.3098C5.53864 11.6649 5.25083 11.9527 4.89579 11.9527C4.54075 11.9527 4.25293 11.6649 4.25293 11.3098C4.25293 10.9548 4.54075 10.667 4.89579 10.667C5.25083 10.667 5.53864 10.9548 5.53864 11.3098Z" fill="white"/>
<path d="M7.46638 11.3098C7.46638 11.6649 7.17856 11.9527 6.82352 11.9527C6.46848 11.9527 6.18066 11.6649 6.18066 11.3098C6.18066 10.9548 6.46848 10.667 6.82352 10.667C7.17856 10.667 7.46638 10.9548 7.46638 11.3098Z" fill="white"/>
</svg>
