<svg width="24" height="24" viewBox="0 0 24 24" fill="none" xmlns="http://www.w3.org/2000/svg">
<path d="M0 2.66667C0 1.19391 1.19391 0 2.66667 0H21.3333C22.8061 0 24 1.19391 24 2.66667V21.3333C24 22.8061 22.8061 24 21.3333 24H2.66667C1.19391 24 0 22.8061 0 21.3333V2.66667Z" fill="#F94B84"/>
<path fill-rule="evenodd" clip-rule="evenodd" d="M12.375 4.5C8.02296 4.5 4.5 7.99945 4.5 12.31C4.5 15.2683 6.1586 17.8444 8.60786 19.1702C8.79 19.2688 8.85772 19.4964 8.75913 19.6785C8.66054 19.8606 8.43297 19.9284 8.25083 19.8298C5.5711 18.3792 3.75 15.5567 3.75 12.31C3.75 7.57966 7.61435 3.75 12.375 3.75C17.1357 3.75 21 7.57966 21 12.31C21 15.5567 19.1789 18.3792 16.4992 19.8298C16.317 19.9284 16.0895 19.8606 15.9909 19.6785C15.8923 19.4964 15.96 19.2688 16.1421 19.1702C18.5914 17.8444 20.25 15.2683 20.25 12.31C20.25 7.99945 16.727 4.5 12.375 4.5Z" fill="white"/>
<path d="M12.4444 19.8357C12.3569 19.8532 12.2913 19.8619 12.2475 19.8619H12.0375C11.6963 19.8619 11.4425 19.8007 11.2763 19.6782C11.11 19.5469 10.9788 19.3588 10.8825 19.1138C10.6375 19.3325 10.3225 19.5294 9.93753 19.7044C9.55253 19.8794 9.10628 19.9669 8.59878 19.9669C8.19628 19.9669 7.8594 19.9144 7.58815 19.8094C7.32565 19.7044 7.11128 19.56 6.94503 19.3763C6.78753 19.1925 6.67378 18.9782 6.60378 18.7332C6.53378 18.4882 6.49878 18.2213 6.49878 17.9325C6.49878 17.53 6.56878 17.2019 6.70878 16.9482C6.84878 16.6857 7.04565 16.48 7.2994 16.3313C7.55315 16.1738 7.85065 16.0688 8.1919 16.0163C8.53315 15.955 8.9094 15.9244 9.32065 15.9244C9.5919 15.9244 9.82815 15.9332 10.0294 15.9507C10.2307 15.9594 10.4625 15.9769 10.725 16.0032V15.6488C10.725 15.325 10.6988 15.0538 10.6463 14.835C10.6025 14.6075 10.5194 14.4282 10.3969 14.2969C10.2744 14.1569 10.1082 14.0563 9.89815 13.995C9.6969 13.9338 9.43878 13.9032 9.12378 13.9032C8.74753 13.9032 8.37128 13.9557 7.99503 14.0607C7.61878 14.1657 7.30815 14.275 7.06315 14.3888L6.80065 13.6275C7.13315 13.4788 7.51815 13.3432 7.95565 13.2207C8.4019 13.0982 8.88753 13.0369 9.41253 13.0369C9.87628 13.0369 10.2613 13.085 10.5675 13.1813C10.8738 13.2688 11.1188 13.4219 11.3025 13.6407C11.4863 13.8507 11.6175 14.1307 11.6963 14.4807C11.775 14.8219 11.8144 15.2463 11.8144 15.7538V18.1425C11.8144 18.4838 11.8625 18.72 11.9588 18.8513C12.0638 18.9738 12.2257 19.035 12.4444 19.035V19.8357ZM9.21565 16.7513C8.62065 16.7513 8.2094 16.8475 7.9819 17.04C7.7544 17.2238 7.64065 17.5082 7.64065 17.8932C7.64065 18.3132 7.7369 18.6238 7.9294 18.825C8.1219 19.0175 8.4544 19.1138 8.9269 19.1138C9.25065 19.1138 9.57003 19.0438 9.88503 18.9038C10.2 18.7638 10.48 18.5975 10.725 18.405V16.8169C10.4713 16.7994 10.2263 16.7863 9.99003 16.7775C9.75378 16.76 9.49565 16.7513 9.21565 16.7513Z" fill="white"/>
<path d="M14.8826 19.8488C14.8651 19.8575 14.8257 19.8619 14.7645 19.8619C14.6945 19.8794 14.607 19.8882 14.502 19.8882C13.977 19.8882 13.6182 19.7394 13.4257 19.4419C13.2332 19.1444 13.137 18.7069 13.137 18.1294V9.97879L14.2263 9.82129V18.1163C14.2263 18.51 14.2745 18.7638 14.3707 18.8775C14.467 18.9825 14.6376 19.035 14.8826 19.035V19.8488Z" fill="white"/>
<path d="M17.4481 19.8488C17.4306 19.8575 17.3912 19.8619 17.33 19.8619C17.26 19.8794 17.1725 19.8882 17.0675 19.8882C16.5425 19.8882 16.1837 19.7394 15.9912 19.4419C15.7987 19.1444 15.7025 18.7069 15.7025 18.1294V9.97879L16.7919 9.82129V18.1163C16.7919 18.51 16.84 18.7638 16.9362 18.8775C17.0325 18.9825 17.2031 19.035 17.4481 19.035V19.8488Z" fill="white"/>
</svg>
