<svg width="24" height="24" viewBox="0 0 24 24" fill="none" xmlns="http://www.w3.org/2000/svg">
<path d="M16.7985 18.0001V16.8572C16.7985 16.251 16.5502 15.6697 16.1082 15.241C15.6661 14.8123 15.0666 14.5715 14.4414 14.5715H9.72712C9.10197 14.5715 8.50242 14.8123 8.06037 15.241C7.61832 15.6697 7.36998 16.251 7.36998 16.8572V18.0001M3.94141 8.87153L12.0843 2.57153L20.2271 8.87153V18.7715C20.2271 19.2489 20.0365 19.7068 19.6971 20.0443C19.3578 20.3819 18.8975 20.5715 18.4176 20.5715H5.75093C5.27101 20.5715 4.81075 20.3819 4.4714 20.0443C4.13205 19.7068 3.94141 19.2489 3.94141 18.7715V8.87153ZM14.4414 10.0001C14.4414 11.2625 13.3861 12.2858 12.0843 12.2858C10.7824 12.2858 9.72712 11.2625 9.72712 10.0001C9.72712 8.73774 10.7824 7.71439 12.0843 7.71439C13.3861 7.71439 14.4414 8.73774 14.4414 10.0001Z" stroke="#56606B" stroke-linecap="round" stroke-linejoin="round"/>
</svg>
