<svg width="24" height="24" viewBox="0 0 24 24" fill="none" xmlns="http://www.w3.org/2000/svg">
<path d="M19.9154 21.353L17.7885 19.2262M9.16958 17.5621H6.94321C6.39201 17.5621 5.79956 17.2149 5.79956 16.4638V5.59288C5.79956 4.95968 6.26946 4.28564 6.94321 4.28564H12.1773M12.1773 4.28564L16.4413 8.63496M12.1773 4.28564V8.63496H16.4413M16.4413 8.63496V10.7605M18.9375 16.4638C18.9375 18.624 17.1863 20.3752 15.0261 20.3752C12.8659 20.3752 11.1147 18.624 11.1147 16.4638C11.1147 14.3036 12.8659 12.5524 15.0261 12.5524C17.1863 12.5524 18.9375 14.3036 18.9375 16.4638Z" stroke="#56606B" stroke-linecap="round" stroke-linejoin="round"/>
</svg>
