<svg width="24" height="24" viewBox="0 0 24 24" fill="none" xmlns="http://www.w3.org/2000/svg">
<path d="M15.6323 8.42571C16.1105 8.90335 16.4898 9.47054 16.7487 10.0949C17.0075 10.7192 17.1407 11.3884 17.1407 12.0643C17.1407 12.7401 17.0075 13.4094 16.7487 14.0337C16.4898 14.658 16.1105 15.2252 15.6323 15.7029M8.36378 15.6943C7.88561 15.2167 7.50628 14.6495 7.24747 14.0251C6.98866 13.4008 6.85545 12.7316 6.85545 12.0557C6.85545 11.3799 6.98866 10.7106 7.24747 10.0863C7.50628 9.46197 7.88561 8.89478 8.36378 8.41714M18.0581 6C19.665 7.60738 20.5677 9.78716 20.5677 12.06C20.5677 14.3328 19.665 16.5126 18.0581 18.12M5.93806 18.12C4.33117 16.5126 3.42847 14.3328 3.42847 12.06C3.42847 9.78716 4.33117 7.60738 5.93806 6M13.7123 12.06C13.7123 13.0068 12.9448 13.7743 11.9981 13.7743C11.0513 13.7743 10.2838 13.0068 10.2838 12.06C10.2838 11.1132 11.0513 10.3457 11.9981 10.3457C12.9448 10.3457 13.7123 11.1132 13.7123 12.06Z" stroke="#56606B" stroke-linecap="round" stroke-linejoin="round"/>
</svg>
