<svg width="24" height="24" viewBox="0 0 24 24" fill="none" xmlns="http://www.w3.org/2000/svg">
<path d="M13.7143 3.42871H6.85717C6.40251 3.42871 5.96648 3.60932 5.64499 3.93081C5.32349 4.2523 5.14288 4.68834 5.14288 5.143V18.8573C5.14288 19.3119 5.32349 19.748 5.64499 20.0695C5.96648 20.391 6.40251 20.5716 6.85717 20.5716H17.1429C17.5975 20.5716 18.0336 20.391 18.3551 20.0695C18.6766 19.748 18.8572 19.3119 18.8572 18.8573V8.57157M13.7143 3.42871L18.8572 8.57157M13.7143 3.42871V8.57157H18.8572M15.4286 12.8573H8.57146M15.4286 16.2859H8.57146M10.2857 9.42871H8.57146" stroke="#6B7682" stroke-linecap="round" stroke-linejoin="round"/>
</svg>
