<svg width="24" height="24" viewBox="0 0 24 24" fill="none" xmlns="http://www.w3.org/2000/svg">
<path d="M0 2.66667C0 1.19391 1.19391 0 2.66667 0H21.3333C22.8061 0 24 1.19391 24 2.66667V21.3333C24 22.8061 22.8061 24 21.3333 24H2.66667C1.19391 24 0 22.8061 0 21.3333V2.66667Z" fill="url(#paint0_linear)"/>
<path fill-rule="evenodd" clip-rule="evenodd" d="M8.62476 3C6.9679 3 5.62476 4.34315 5.62476 6V17.625C5.62476 19.2819 6.9679 20.625 8.62476 20.625H15.7498C17.4066 20.625 18.7498 19.2819 18.7498 17.625V6C18.7498 4.34315 17.4066 3 15.7498 3H8.62476ZM9.37476 3.75C7.7179 3.75 6.37476 5.09314 6.37476 6.75V15C6.37476 16.6569 7.7179 18 9.37476 18H14.9998C16.6566 18 17.9998 16.6569 17.9998 15V6.75C17.9998 5.09315 16.6566 3.75 14.9998 3.75H9.37476Z" fill="white"/>
<path d="M7.875 7.30262H8.95987V10.6065C8.95987 11.0155 9.03468 11.3383 9.18432 11.5748C9.33895 11.8064 9.59333 11.9222 9.94747 11.9222C10.157 11.9222 10.334 11.8975 10.4787 11.8483C10.6233 11.7941 10.7405 11.7103 10.8303 11.597C10.9251 11.4787 10.9924 11.3284 11.0323 11.1461C11.0722 10.9588 11.0922 10.7322 11.0922 10.4661V7.30262H12.1771V10.5326C12.1771 10.9219 12.1272 11.257 12.0274 11.5378C11.9326 11.8138 11.7905 12.0429 11.601 12.2252C11.4114 12.4026 11.177 12.5357 10.8977 12.6243C10.6233 12.7081 10.3091 12.75 9.95495 12.75C9.25664 12.75 8.73541 12.5726 8.39125 12.2178C8.04708 11.863 7.875 11.2816 7.875 10.4735V7.30262Z" fill="white"/>
<path d="M14.6305 6H15.5358V7.33043H16.875V8.17304H15.5358V9.48869H14.6305V8.17304H13.2912V7.33043H14.6305V6Z" fill="white"/>
<defs>
<linearGradient id="paint0_linear" x1="12" y1="0" x2="12" y2="24" gradientUnits="userSpaceOnUse">
<stop stop-color="#FF7795"/>
<stop offset="1" stop-color="#F11570"/>
</linearGradient>
</defs>
</svg>
