<svg width="22" height="22" viewBox="0 0 22 22" fill="none" xmlns="http://www.w3.org/2000/svg">
<mask id="path-1-inside-1" fill="white">
<path d="M14.9286 3.14307H7.07143C6.20355 3.14307 5.5 3.84662 5.5 4.71449V17.2859C5.5 18.1538 6.20355 18.8574 7.07143 18.8574H14.9286C15.7964 18.8574 16.5 18.1538 16.5 17.2859V4.71449C16.5 3.84662 15.7964 3.14307 14.9286 3.14307Z"/>
</mask>
<path d="M7.07143 4.14307H14.9286V2.14307H7.07143V4.14307ZM14.9286 4.14307C15.2442 4.14307 15.5 4.3989 15.5 4.71449H17.5C17.5 3.29433 16.3487 2.14307 14.9286 2.14307V4.14307ZM15.5 4.71449V17.2859H17.5V4.71449H15.5ZM15.5 17.2859C15.5 17.6015 15.2442 17.8574 14.9286 17.8574V19.8574C16.3487 19.8574 17.5 18.7061 17.5 17.2859H15.5ZM14.9286 17.8574H7.07143V19.8574H14.9286V17.8574ZM7.07143 17.8574C6.75584 17.8574 6.5 17.6015 6.5 17.2859H4.5C4.5 18.7061 5.65127 19.8574 7.07143 19.8574V17.8574ZM6.5 17.2859V4.71449H4.5V17.2859H6.5ZM6.5 4.71449C6.5 4.3989 6.75584 4.14307 7.07143 4.14307V2.14307C5.65127 2.14307 4.5 3.29433 4.5 4.71449H6.5Z" fill="#6B7682" mask="url(#path-1-inside-1)"/>
<path d="M11.7853 15.7144C11.7853 16.1484 11.4335 16.5001 10.9996 16.5001C10.5656 16.5001 10.2139 16.1484 10.2139 15.7144C10.2139 15.2805 10.5656 14.9287 10.9996 14.9287C11.4335 14.9287 11.7853 15.2805 11.7853 15.7144Z" fill="#6B7682"/>
</svg>
