<svg width="24" height="24" viewBox="0 0 24 24" fill="none" xmlns="http://www.w3.org/2000/svg">
<path d="M15.6326 8.42571C16.1108 8.90335 16.4901 9.47054 16.7489 10.0949C17.0077 10.7192 17.1409 11.3884 17.1409 12.0643C17.1409 12.7401 17.0077 13.4094 16.7489 14.0337C16.4901 14.658 16.1108 15.2252 15.6326 15.7029M8.36402 15.6943C7.88586 15.2167 7.50653 14.6495 7.24772 14.0251C6.98891 13.4008 6.85569 12.7316 6.85569 12.0557C6.85569 11.3799 6.98891 10.7106 7.24772 10.0863C7.50653 9.46197 7.88586 8.89478 8.36402 8.41714M18.0583 6C19.6652 7.60738 20.5679 9.78716 20.5679 12.06C20.5679 14.3328 19.6652 16.5126 18.0583 18.12M5.93831 18.12C4.33141 16.5126 3.42871 14.3328 3.42871 12.06C3.42871 9.78716 4.33141 7.60738 5.93831 6" stroke="#763FD1" stroke-width="1.5" stroke-linecap="round" stroke-linejoin="round"/>
<path d="M11.9985 13.7743C12.9452 13.7743 13.7128 13.0068 13.7128 12.06C13.7128 11.1132 12.9452 10.3457 11.9985 10.3457C11.0517 10.3457 10.2842 11.1132 10.2842 12.06C10.2842 13.0068 11.0517 13.7743 11.9985 13.7743Z" fill="#763FD1" stroke="#763FD1" stroke-linecap="round" stroke-linejoin="round"/>
</svg>
