<svg width="24" height="24" viewBox="0 0 24 24" fill="none" xmlns="http://www.w3.org/2000/svg">
<path d="M20.5714 4.91759C20.5714 5.82558 17.9564 6.55197 14.7239 6.55197C11.4915 6.55197 8.87646 5.82558 8.87646 4.91759C8.87646 4.0096 11.4915 3.2832 14.7239 3.2832C17.9564 3.2832 20.5714 4.0096 20.5714 4.91759Z" stroke="#2C3238" stroke-miterlimit="10" stroke-linecap="round"/>
<path d="M20.5714 7.82324C20.5714 8.73123 17.9564 9.45762 14.7239 9.45762C14.1065 9.45762 13.5254 9.4213 12.9443 9.38498C12.8716 9.38498 9.38495 8.94915 9.34863 8.91283" stroke="#2C3238" stroke-miterlimit="10" stroke-linecap="round"/>
<path d="M20.5713 10.9829C20.5713 11.8546 18.1016 12.581 15.0144 12.6173" stroke="#2C3238" stroke-miterlimit="10" stroke-linecap="round"/>
<path d="M20.5714 14.1426C20.5714 15.0142 18.138 15.7043 15.0872 15.777" stroke="#2C3238" stroke-miterlimit="10" stroke-linecap="round"/>
<path d="M8.87646 5.42578V9.13038" stroke="#2C3238" stroke-miterlimit="10" stroke-linecap="round"/>
<path d="M20.5713 5.42578V14.1062" stroke="#2C3238" stroke-miterlimit="10" stroke-linecap="round"/>
<path d="M14.9418 14.9418C14.9418 18.1379 12.3631 20.7166 9.16696 20.7166C6.00716 20.7166 3.42847 18.1379 3.42847 14.9418C3.42847 11.7457 6.00716 9.16699 9.20328 9.16699C12.3631 9.20331 14.9418 11.782 14.9418 14.9418Z" stroke="#2C3238" stroke-miterlimit="10" stroke-linecap="round"/>
<mask id="path-8-inside-1" fill="white">
<path d="M8.87624 18.6826V17.7746C8.36776 17.7746 7.82297 17.593 7.49609 17.3751L7.71401 16.7577C8.04089 16.9756 8.51304 17.1572 9.02152 17.1572C9.67527 17.1572 10.1111 16.794 10.1111 16.2855C10.1111 15.7771 9.74791 15.4865 9.09416 15.196C8.14985 14.8328 7.60505 14.4332 7.60505 13.6342C7.60505 12.8715 8.14985 12.3267 8.9852 12.1814V11.2734H9.52999V12.1451C10.0748 12.1451 10.438 12.2904 10.6922 12.472L10.4743 13.0531C10.2927 12.9441 9.92951 12.7625 9.34839 12.7625C8.65832 12.7625 8.40408 13.1621 8.40408 13.5253C8.40408 13.9974 8.73096 14.2153 9.52999 14.5422C10.4743 14.9417 10.9465 15.3776 10.9465 16.2129C10.9465 16.9393 10.438 17.593 9.52999 17.7383V18.6826H8.87624Z"/>
</mask>
<path d="M8.87624 18.6826H7.87624V19.6826H8.87624V18.6826ZM8.87624 17.7746H9.87624V16.7746H8.87624V17.7746ZM7.49609 17.3751L6.5531 17.0423L6.29424 17.7757L6.94139 18.2072L7.49609 17.3751ZM7.71401 16.7577L8.26871 15.9256L7.19893 15.2125L6.77102 16.4249L7.71401 16.7577ZM9.09416 15.196L9.5003 14.2821L9.47697 14.2718L9.45314 14.2626L9.09416 15.196ZM8.9852 12.1814L9.15654 13.1666L9.9852 13.0225V12.1814H8.9852ZM8.9852 11.2734V10.2734H7.9852V11.2734H8.9852ZM9.52999 11.2734H10.53V10.2734H9.52999V11.2734ZM9.52999 12.1451H8.52999V13.1451H9.52999V12.1451ZM10.6922 12.472L11.6285 12.8231L11.8981 12.1044L11.2735 11.6583L10.6922 12.472ZM10.4743 13.0531L9.95981 13.9106L10.9891 14.5282L11.4106 13.4042L10.4743 13.0531ZM9.52999 14.5422L9.91966 13.6212L9.90862 13.6167L9.52999 14.5422ZM9.52999 17.7383L9.372 16.7509L8.52999 16.8856V17.7383H9.52999ZM9.52999 18.6826V19.6826H10.53V18.6826H9.52999ZM9.87624 18.6826V17.7746H7.87624V18.6826H9.87624ZM8.87624 16.7746C8.7355 16.7746 8.57016 16.7485 8.40707 16.6993C8.24126 16.6492 8.11698 16.5872 8.05079 16.5431L6.94139 18.2072C7.43348 18.5352 8.17147 18.7746 8.87624 18.7746V16.7746ZM8.43908 17.708L8.657 17.0905L6.77102 16.4249L6.5531 17.0423L8.43908 17.708ZM7.15931 17.5897C7.62451 17.8999 8.28658 18.1572 9.02152 18.1572V16.1572C8.7395 16.1572 8.45727 16.0514 8.26871 15.9256L7.15931 17.5897ZM9.02152 18.1572C9.5271 18.1572 10.0364 18.0166 10.4407 17.6893C10.8595 17.3502 11.1111 16.8496 11.1111 16.2855H9.11111C9.11111 16.2671 9.11573 16.2356 9.13263 16.2007C9.14925 16.1664 9.16987 16.1448 9.18227 16.1348C9.20517 16.1163 9.16969 16.1572 9.02152 16.1572V18.1572ZM11.1111 16.2855C11.1111 15.7488 10.9023 15.2994 10.5549 14.9519C10.2482 14.6452 9.85506 14.4398 9.5003 14.2821L8.68802 16.1098C8.8288 16.1723 8.93372 16.2261 9.0121 16.2734C9.09074 16.3209 9.12724 16.3527 9.14068 16.3661C9.15108 16.3765 9.13814 16.3662 9.125 16.3356C9.11126 16.3035 9.11111 16.2815 9.11111 16.2855H11.1111ZM9.45314 14.2626C9.01044 14.0923 8.79426 13.9596 8.68962 13.8587C8.6473 13.8179 8.63282 13.791 8.62581 13.7744C8.6186 13.7574 8.60505 13.7175 8.60505 13.6342H6.60505C6.60505 14.3033 6.8503 14.8634 7.30135 15.2984C7.7052 15.6878 8.23356 15.9364 8.73518 16.1293L9.45314 14.2626ZM8.60505 13.6342C8.60505 13.5065 8.64443 13.4299 8.70195 13.3702C8.76873 13.3009 8.90704 13.21 9.15654 13.1666L8.81386 11.1962C7.62009 11.4038 6.60505 12.2724 6.60505 13.6342H8.60505ZM9.9852 12.1814V11.2734H7.9852V12.1814H9.9852ZM8.9852 12.2734H9.52999V10.2734H8.9852V12.2734ZM8.52999 11.2734V12.1451H10.53V11.2734H8.52999ZM9.52999 13.1451C9.88052 13.1451 10.0375 13.2332 10.111 13.2857L11.2735 11.6583C10.8385 11.3475 10.2691 11.1451 9.52999 11.1451V13.1451ZM9.75589 12.1209L9.53797 12.702L11.4106 13.4042L11.6285 12.8231L9.75589 12.1209ZM10.9888 12.1956C10.6984 12.0214 10.1583 11.7625 9.34839 11.7625V13.7625C9.7007 13.7625 9.88703 13.8669 9.95981 13.9106L10.9888 12.1956ZM9.34839 11.7625C8.80745 11.7625 8.29909 11.9235 7.92132 12.2898C7.54948 12.6504 7.40408 13.1144 7.40408 13.5253H9.40408C9.40408 13.5729 9.38581 13.6556 9.31361 13.7256C9.27975 13.7584 9.25129 13.7705 9.24578 13.7725C9.24248 13.7737 9.27169 13.7625 9.34839 13.7625V11.7625ZM7.40408 13.5253C7.40408 14.0627 7.62082 14.5111 8.01975 14.8501C8.33805 15.1207 8.76095 15.308 9.15136 15.4677L9.90862 13.6167C9.71906 13.5391 9.58004 13.477 9.47544 13.4231C9.36923 13.3683 9.32626 13.3358 9.31505 13.3263C9.3099 13.3219 9.34352 13.3499 9.37297 13.4127C9.38671 13.4419 9.39513 13.4696 9.39975 13.4924C9.40419 13.5143 9.40408 13.5266 9.40408 13.5253H7.40408ZM9.14035 15.4632C9.56863 15.6444 9.75974 15.7835 9.84777 15.8817C9.89981 15.9397 9.94646 16.0106 9.94646 16.2129H11.9465C11.9465 15.5798 11.757 15.0152 11.3369 14.5466C10.9528 14.1181 10.4357 13.8396 9.91963 13.6212L9.14035 15.4632ZM9.94646 16.2129C9.94646 16.3387 9.90422 16.4466 9.82925 16.5315C9.7559 16.6145 9.61853 16.7114 9.372 16.7509L9.68798 18.7258C11.0506 18.5078 11.9465 17.4609 11.9465 16.2129H9.94646ZM8.52999 17.7383V18.6826H10.53V17.7383H8.52999ZM9.52999 17.6826H8.87624V19.6826H9.52999V17.6826Z" fill="#2C3238" mask="url(#path-8-inside-1)"/>
</svg>
