<svg width="27" height="26" viewBox="0 0 27 26" fill="none" xmlns="http://www.w3.org/2000/svg">
<path d="M23.7142 19.4997C23.7142 19.9923 23.5186 20.4646 23.1703 20.8129C22.822 21.1612 22.3496 21.3569 21.8571 21.3569H5.14279C4.65024 21.3569 4.17787 21.1612 3.82959 20.8129C3.48131 20.4646 3.28564 19.9923 3.28564 19.4997V9.28544C3.28564 8.79289 3.48131 8.32052 3.82959 7.97224C4.17787 7.62396 4.65024 7.42829 5.14279 7.42829H8.85707L10.7142 4.64258H16.2856L18.1428 7.42829H21.8571C22.3496 7.42829 22.822 7.62396 23.1703 7.97224C23.5186 8.32052 23.7142 8.79289 23.7142 9.28544V19.4997Z" stroke="#8996A3" stroke-linecap="round" stroke-linejoin="round"/>
<path d="M13.4999 17.6426C15.5513 17.6426 17.2142 15.9796 17.2142 13.9283C17.2142 11.8769 15.5513 10.214 13.4999 10.214C11.4486 10.214 9.78564 11.8769 9.78564 13.9283C9.78564 15.9796 11.4486 17.6426 13.4999 17.6426Z" stroke="#8996A3" stroke-linecap="round" stroke-linejoin="round"/>
</svg>
