<svg width="22" height="22" viewBox="0 0 22 22" fill="none" xmlns="http://www.w3.org/2000/svg">
<path d="M4.25 6.5H5.75M5.75 6.5H17.75M5.75 6.5V17C5.75 17.3978 5.90804 17.7794 6.18934 18.0607C6.47064 18.342 6.85218 18.5 7.25 18.5H14.75C15.1478 18.5 15.5294 18.342 15.8107 18.0607C16.092 17.7794 16.25 17.3978 16.25 17V6.5H5.75ZM8 6.5V5C8 4.60218 8.15804 4.22064 8.43934 3.93934C8.72064 3.65804 9.10218 3.5 9.5 3.5H12.5C12.8978 3.5 13.2794 3.65804 13.5607 3.93934C13.842 4.22064 14 4.60218 14 5V6.5M9.5 10.25V14.75M12.5 10.25V14.75" stroke="#F94B50" stroke-linecap="round" stroke-linejoin="round"/>
</svg>
