<svg width="24" height="24" viewBox="0 0 24 24" fill="none" xmlns="http://www.w3.org/2000/svg">
<path d="M12.0001 4.28578C10.4088 4.28578 8.88272 4.91792 7.7575 6.04314C6.63228 7.16836 6.00014 8.69448 6.00014 10.2858V14.5715C6.00014 15.2535 5.72922 15.9075 5.24699 16.3898C4.76475 16.872 4.1107 17.1429 3.42871 17.1429H20.5716C19.8896 17.1429 19.2355 16.872 18.7533 16.3898C18.2711 15.9075 18.0001 15.2535 18.0001 14.5715V10.2858C18.0001 8.69448 17.368 7.16836 16.2428 6.04314C15.1176 4.91792 13.5914 4.28578 12.0001 4.28578ZM12.0001 4.28578V1.71436M13.483 20.5715C13.3323 20.8313 13.116 21.0469 12.8558 21.1968C12.5955 21.3467 12.3005 21.4256 12.0001 21.4256C11.6998 21.4256 11.4048 21.3467 11.1445 21.1968C10.8843 21.0469 10.668 20.8313 10.5173 20.5715" stroke="#56606B" stroke-linecap="round" stroke-linejoin="round"/>
</svg>
