<svg width="24" height="24" viewBox="0 0 24 24" fill="none" xmlns="http://www.w3.org/2000/svg">
<mask id="path-1-inside-1" fill="white">
<path d="M16.2857 3.42871H7.71429C6.76751 3.42871 6 4.19622 6 5.143V18.8573C6 19.8041 6.76751 20.5716 7.71429 20.5716H16.2857C17.2325 20.5716 18 19.8041 18 18.8573V5.143C18 4.19622 17.2325 3.42871 16.2857 3.42871Z"/>
</mask>
<path d="M7.71429 4.42871H16.2857V2.42871H7.71429V4.42871ZM16.2857 4.42871C16.6802 4.42871 17 4.74851 17 5.143H19C19 3.64394 17.7848 2.42871 16.2857 2.42871V4.42871ZM17 5.143V18.8573H19V5.143H17ZM17 18.8573C17 19.2518 16.6802 19.5716 16.2857 19.5716V21.5716C17.7848 21.5716 19 20.3563 19 18.8573H17ZM16.2857 19.5716H7.71429V21.5716H16.2857V19.5716ZM7.71429 19.5716C7.3198 19.5716 7 19.2518 7 18.8573H5C5 20.3563 6.21523 21.5716 7.71429 21.5716V19.5716ZM7 18.8573V5.143H5V18.8573H7ZM7 5.143C7 4.74851 7.3198 4.42871 7.71429 4.42871V2.42871C6.21523 2.42871 5 3.64394 5 5.143H7Z" fill="#56606B" mask="url(#path-1-inside-1)"/>
<mask id="path-3-inside-2" fill="white">
<path d="M12.8571 17.1428C12.8571 17.6162 12.4734 17.9999 12 17.9999C11.5266 17.9999 11.1428 17.6162 11.1428 17.1428C11.1428 16.6694 11.5266 16.2856 12 16.2856C12.4734 16.2856 12.8571 16.6694 12.8571 17.1428Z"/>
</mask>
<path d="M12.8571 17.1428C12.8571 17.6162 12.4734 17.9999 12 17.9999C11.5266 17.9999 11.1428 17.6162 11.1428 17.1428C11.1428 16.6694 11.5266 16.2856 12 16.2856C12.4734 16.2856 12.8571 16.6694 12.8571 17.1428Z" fill="#555555"/>
<path d="M11.8571 17.1428C11.8571 17.0639 11.9211 16.9999 12 16.9999V18.9999C13.0256 18.9999 13.8571 18.1685 13.8571 17.1428H11.8571ZM12 16.9999C12.0789 16.9999 12.1428 17.0639 12.1428 17.1428H10.1428C10.1428 18.1685 10.9743 18.9999 12 18.9999V16.9999ZM12.1428 17.1428C12.1428 17.2217 12.0789 17.2856 12 17.2856V15.2856C10.9743 15.2856 10.1428 16.1171 10.1428 17.1428H12.1428ZM12 17.2856C11.9211 17.2856 11.8571 17.2217 11.8571 17.1428H13.8571C13.8571 16.1171 13.0256 15.2856 12 15.2856V17.2856Z" fill="#56606B" mask="url(#path-3-inside-2)"/>
</svg>
