<svg width="24" height="24" viewBox="0 0 24 24" fill="none" xmlns="http://www.w3.org/2000/svg">
<path d="M3.94141 8.87141L12.0843 2.57141L20.2271 8.87141V18.7714C20.2271 19.2488 20.0365 19.7066 19.6971 20.0442C19.3578 20.3818 18.8975 20.5714 18.4176 20.5714H5.75093C5.27101 20.5714 4.81075 20.3818 4.4714 20.0442C4.13205 19.7066 3.94141 19.2488 3.94141 18.7714V8.87141Z" stroke="#CFA6FF" stroke-linecap="round" stroke-linejoin="round"/>
<path d="M12.0847 12.2858C13.3865 12.2858 14.4418 11.2624 14.4418 10.0001C14.4418 8.7377 13.3865 7.71436 12.0847 7.71436C10.7829 7.71436 9.72754 8.7377 9.72754 10.0001C9.72754 11.2624 10.7829 12.2858 12.0847 12.2858Z" fill="#CFA6FF"/>
<path d="M17 18V16.6667C17 15.9594 16.7366 15.2811 16.2678 14.7811C15.7989 14.281 15.163 14 14.5 14H9.5C8.83696 14 8.20107 14.281 7.73223 14.7811C7.26339 15.2811 7 15.9594 7 16.6667V18" fill="#CFA6FF"/>
</svg>
