<svg width="21" height="21" viewBox="0 0 21 21" fill="none" xmlns="http://www.w3.org/2000/svg">
<mask id="path-1-inside-1_1479_10485" fill="white">
<path d="M10.5004 3.71434C6.75277 3.71434 3.7147 6.75241 3.7147 10.5001C3.7147 14.2477 6.75277 17.2858 10.5004 17.2858C14.2481 17.2858 17.2861 14.2477 17.2861 10.5001C17.2861 6.75241 14.2481 3.71434 10.5004 3.71434Z"/>
</mask>
<path d="M10.0004 13.2143C10.0004 13.4905 10.2243 13.7143 10.5004 13.7143C10.7766 13.7143 11.0004 13.4905 11.0004 13.2143H10.0004ZM11.0004 10.5001C11.0004 10.2239 10.7766 10.0001 10.5004 10.0001C10.2243 10.0001 10.0004 10.2239 10.0004 10.5001H11.0004ZM11.0004 13.2143V10.5001H10.0004V13.2143H11.0004ZM4.7147 10.5001C4.7147 7.30469 7.30506 4.71434 10.5004 4.71434V2.71434C6.20049 2.71434 2.7147 6.20012 2.7147 10.5001H4.7147ZM10.5004 4.71434C13.6958 4.71434 16.2861 7.30469 16.2861 10.5001H18.2861C18.2861 6.20012 14.8003 2.71434 10.5004 2.71434V4.71434ZM16.2861 10.5001C16.2861 13.6954 13.6958 16.2858 10.5004 16.2858V18.2858C14.8003 18.2858 18.2861 14.8 18.2861 10.5001H16.2861ZM10.5004 16.2858C7.30506 16.2858 4.7147 13.6954 4.7147 10.5001H2.7147C2.7147 14.8 6.20049 18.2858 10.5004 18.2858V16.2858Z" fill="#C2A5CF" mask="url(#path-1-inside-1_1479_10485)"/>
<mask id="path-3-inside-2_1479_10485" fill="white">
<path d="M9.82157 7.78566C9.82157 7.4109 10.1254 7.10709 10.5001 7.10709C10.8749 7.10709 11.1787 7.4109 11.1787 7.78566C11.1787 8.16043 10.8749 8.46423 10.5001 8.46423C10.1254 8.46423 9.82157 8.16043 9.82157 7.78566Z"/>
</mask>
<path d="M9.82157 7.78566C9.82157 7.4109 10.1254 7.10709 10.5001 7.10709C10.8749 7.10709 11.1787 7.4109 11.1787 7.78566C11.1787 8.16043 10.8749 8.46423 10.5001 8.46423C10.1254 8.46423 9.82157 8.16043 9.82157 7.78566Z" fill="#C2A5CF"/>
<path d="M10.8216 7.78566C10.8216 7.96318 10.6777 8.10709 10.5001 8.10709V6.10709C9.57309 6.10709 8.82157 6.85861 8.82157 7.78566H10.8216ZM10.5001 8.10709C10.3226 8.10709 10.1787 7.96318 10.1787 7.78566H12.1787C12.1787 6.85861 11.4272 6.10709 10.5001 6.10709V8.10709ZM10.1787 7.78566C10.1787 7.60814 10.3226 7.46423 10.5001 7.46423V9.46423C11.4272 9.46423 12.1787 8.71271 12.1787 7.78566H10.1787ZM10.5001 7.46423C10.6777 7.46423 10.8216 7.60814 10.8216 7.78566H8.82157C8.82157 8.71271 9.57309 9.46423 10.5001 9.46423V7.46423Z" fill="#C2A5CF" mask="url(#path-3-inside-2_1479_10485)"/>
</svg>
