<svg width="24" height="24" viewBox="0 0 24 24" fill="none" xmlns="http://www.w3.org/2000/svg">
<path d="M16.799 17.9999V16.857C16.799 16.2508 16.5507 15.6694 16.1086 15.2408C15.6666 14.8121 15.067 14.5713 14.4419 14.5713H9.72761C9.10246 14.5713 8.50291 14.8121 8.06086 15.2408C7.61881 15.6694 7.37047 16.2508 7.37047 16.857V17.9999M3.94189 8.87129L12.0848 2.57129L20.2276 8.87129V18.7713C20.2276 19.2487 20.037 19.7065 19.6976 20.0441C19.3583 20.3816 18.898 20.5713 18.4181 20.5713H5.75142C5.2715 20.5713 4.81124 20.3816 4.47189 20.0441C4.13254 19.7065 3.94189 19.2487 3.94189 18.7713V8.87129ZM14.4419 9.99986C14.4419 11.2622 13.3866 12.2856 12.0848 12.2856C10.7829 12.2856 9.72761 11.2622 9.72761 9.99986C9.72761 8.7375 10.7829 7.71415 12.0848 7.71415C13.3866 7.71415 14.4419 8.7375 14.4419 9.99986Z" stroke="#56606B" stroke-linecap="round" stroke-linejoin="round"/>
</svg>
