<svg width="24" height="24" viewBox="0 0 24 24" fill="none" xmlns="http://www.w3.org/2000/svg">
<path d="M18.3427 14.5714L18.8002 14.7733L18.8023 14.7684L18.3427 14.5714ZM18.245 15.3948L18.737 15.3056L18.245 15.3948ZM18.8618 13.9494L18.5857 13.5325L18.5857 13.5325L18.8618 13.9494ZM19.637 13.7143V13.2143L19.635 13.2143L19.637 13.7143ZM20.9263 13.2122L21.2799 13.5657L20.9263 13.2122ZM20.9263 10.7878L21.2799 10.4342V10.4342L20.9263 10.7878ZM19.5684 10.2857L19.5664 10.7857H19.5684V10.2857ZM18.7932 10.0506L19.0693 9.6337L19.0693 9.6337L18.7932 10.0506ZM18.2742 9.42855H17.7742C17.7742 9.49627 17.7879 9.56328 17.8146 9.62552L18.2742 9.42855ZM18.2742 9.35998H18.7742C18.7742 9.29046 18.7597 9.2217 18.7316 9.1581L18.2742 9.35998ZM18.1764 8.53662L17.6845 8.44742L18.1764 8.53662ZM18.557 7.79998L18.2034 7.44642L18.1996 7.45035L18.557 7.79998ZM18.6084 7.74855L18.2551 7.3948L18.2549 7.39501L18.6084 7.74855ZM18.9805 7.19217L19.4424 7.38364L19.4424 7.38363L18.9805 7.19217ZM18.9805 5.87923L19.4424 5.68776L19.4424 5.68776L18.9805 5.87923ZM18.6084 5.32284L18.2547 5.6762L18.2551 5.67659L18.6084 5.32284ZM18.0521 4.95074L17.8606 5.41262V5.41262L18.0521 4.95074ZM16.7391 4.95074L16.9306 5.41262V5.41262L16.7391 4.95074ZM16.1827 5.32284L16.5363 5.67639L16.5365 5.6762L16.1827 5.32284ZM16.1313 5.37427L16.481 5.73172L16.4849 5.72782L16.1313 5.37427ZM15.3947 5.75484L15.4839 6.24682L15.3947 5.75484ZM14.5713 5.65713L14.7732 5.19967L14.7683 5.19756L14.5713 5.65713ZM13.9493 5.1381L14.3661 4.86202V4.86202L13.9493 5.1381ZM13.7142 4.36284H13.2141L13.2142 4.36483L13.7142 4.36284ZM13.212 3.07351L13.5656 2.71996L13.5656 2.71996L13.212 3.07351ZM10.7877 3.07351L11.1412 3.42707L11.1412 3.42707L10.7877 3.07351ZM10.2856 4.43141L10.7856 4.43341V4.43141H10.2856ZM10.0505 5.20667L10.4673 5.48274L10.4673 5.48274L10.0505 5.20667ZM9.42843 5.7257V6.2257C9.49615 6.2257 9.56316 6.21194 9.6254 6.18527L9.42843 5.7257ZM9.35986 5.7257V5.2257C9.29034 5.2257 9.22158 5.2402 9.15798 5.26827L9.35986 5.7257ZM8.5365 5.82342L8.62571 5.33144L8.5365 5.82342ZM7.79986 5.44284L7.44628 5.79641L7.45023 5.80027L7.79986 5.44284ZM7.74843 5.39141L7.39468 5.74477L7.39487 5.74496L7.74843 5.39141ZM7.19204 5.01931L7.00057 5.4812L7.00057 5.4812L7.19204 5.01931ZM5.87911 5.01931L6.07058 5.4812L6.07058 5.4812L5.87911 5.01931ZM5.32272 5.39141L5.67608 5.74516L5.67647 5.74477L5.32272 5.39141ZM4.95062 5.9478L4.48873 5.75633L4.48873 5.75633L4.95062 5.9478ZM4.95062 7.26074L4.48873 7.45221L4.48873 7.45221L4.95062 7.26074ZM5.32272 7.81713L5.67627 7.46357L5.67608 7.46338L5.32272 7.81713ZM5.37415 7.86855L5.7316 7.5189L5.7277 7.515L5.37415 7.86855ZM5.75472 8.60519L5.26274 8.6944V8.6944L5.75472 8.60519ZM5.657 9.42855L5.19957 9.22667C5.19532 9.23631 5.19137 9.24608 5.18774 9.25596L5.657 9.42855ZM4.36272 10.3543V10.8544L4.37441 10.8541L4.36272 10.3543ZM3.07339 10.8564L2.71984 10.5028H2.71984L3.07339 10.8564ZM3.07339 13.2807L2.71984 13.6343L2.71984 13.6343L3.07339 13.2807ZM4.43129 13.7828L4.43328 13.2828H4.43129V13.7828ZM5.20654 14.018L4.93047 14.4348L4.93047 14.4348L5.20654 14.018ZM5.72558 14.64L5.26598 14.837L5.26815 14.8419L5.72558 14.64ZM5.82329 15.4633L6.31527 15.5525L5.82329 15.4633ZM5.44272 16.2L5.7963 16.5536L5.80015 16.5496L5.44272 16.2ZM5.39129 16.2514L5.74465 16.6052L5.74485 16.605L5.39129 16.2514ZM5.01919 16.8078L4.5573 16.6163H4.5573L5.01919 16.8078ZM5.01919 18.1207L5.48108 17.9293L5.01919 18.1207ZM5.39129 18.6771L5.74504 18.3238L5.74465 18.3234L5.39129 18.6771ZM5.94768 19.0492L5.75621 19.5111L5.75621 19.5111L5.94768 19.0492ZM7.26061 19.0492L7.45208 19.5111L7.45209 19.5111L7.26061 19.0492ZM7.817 18.6771L7.46345 18.3236L7.46325 18.3238L7.817 18.6771ZM7.86843 18.6257L7.51878 18.2682L7.51488 18.2721L7.86843 18.6257ZM8.60507 18.2451L8.69427 18.7371L8.60507 18.2451ZM9.42843 18.3428L9.22655 18.8003C9.23619 18.8045 9.24596 18.8085 9.25584 18.8121L9.42843 18.3428ZM10.3541 19.6371H10.8543L10.854 19.6254L10.3541 19.6371ZM10.8563 20.9265L11.2098 20.5729L10.8563 20.9265ZM13.2806 20.9265L13.6342 21.28L13.2806 20.9265ZM13.7827 19.5686L13.2827 19.5666V19.5686H13.7827ZM14.6399 18.2743L14.8368 18.7339L14.8417 18.7317L14.6399 18.2743ZM15.4632 18.1765L15.5524 17.6846L15.5524 17.6846L15.4632 18.1765ZM16.1999 18.5571L16.5534 18.2036L16.5495 18.1997L16.1999 18.5571ZM16.2513 18.6086L16.605 18.2552L16.6049 18.255L16.2513 18.6086ZM16.8077 18.9807L16.9992 18.5188L16.9992 18.5188L16.8077 18.9807ZM18.1206 18.9807L17.9292 18.5188L17.9292 18.5188L18.1206 18.9807ZM18.677 18.6086L18.3237 18.2548L18.3233 18.2552L18.677 18.6086ZM19.0491 18.0522L19.511 18.2436L19.511 18.2436L19.0491 18.0522ZM19.0491 16.7392L19.511 16.5478L19.511 16.5478L19.0491 16.7392ZM18.677 16.1828L18.3235 16.5364L18.3237 16.5366L18.677 16.1828ZM18.6256 16.1314L18.2681 16.4811L18.272 16.485L18.6256 16.1314ZM17.8853 14.3695C17.7309 14.7195 17.6848 15.1076 17.753 15.484L18.737 15.3056C18.7044 15.1258 18.7264 14.9404 18.8002 14.7733L17.8853 14.3695ZM18.5857 13.5325C18.2744 13.7387 18.0302 14.0313 17.8832 14.3744L18.8023 14.7684C18.8725 14.6045 18.9892 14.4647 19.1378 14.3663L18.5857 13.5325ZM19.635 13.2143C19.2617 13.2158 18.8969 13.3264 18.5857 13.5325L19.1378 14.3663C19.2865 14.2678 19.4607 14.215 19.639 14.2143L19.635 13.2143ZM19.7142 13.2143H19.637V14.2143H19.7142V13.2143ZM20.5728 12.8586C20.3451 13.0863 20.0362 13.2143 19.7142 13.2143V14.2143C20.3014 14.2143 20.8646 13.981 21.2799 13.5657L20.5728 12.8586ZM20.9284 12C20.9284 12.322 20.8005 12.6309 20.5728 12.8586L21.2799 13.5657C21.6952 13.1505 21.9284 12.5872 21.9284 12H20.9284ZM20.5728 11.1414C20.8005 11.3691 20.9284 11.6779 20.9284 12H21.9284C21.9284 11.4127 21.6952 10.8495 21.2799 10.4342L20.5728 11.1414ZM19.7142 10.7857C20.0362 10.7857 20.3451 10.9136 20.5728 11.1414L21.2799 10.4342C20.8646 10.019 20.3014 9.7857 19.7142 9.7857V10.7857ZM19.5684 10.7857H19.7142V9.7857H19.5684V10.7857ZM18.5171 10.4674C18.8284 10.6736 19.1931 10.7842 19.5664 10.7857L19.5704 9.7857C19.3921 9.78499 19.2179 9.73216 19.0693 9.6337L18.5171 10.4674ZM17.8146 9.62552C17.9617 9.96867 18.2059 10.2613 18.5171 10.4674L19.0693 9.6337C18.9206 9.53525 18.804 9.39548 18.7337 9.23159L17.8146 9.62552ZM17.7742 9.35998V9.42855H18.7742V9.35998H17.7742ZM17.6845 8.44742C17.6162 8.82377 17.6623 9.21194 17.8167 9.56186L18.7316 9.1581C18.6578 8.99097 18.6358 8.80558 18.6684 8.62582L17.6845 8.44742ZM18.1996 7.45035C17.9321 7.72378 17.7527 8.07106 17.6845 8.44742L18.6684 8.62582C18.701 8.44608 18.7867 8.28021 18.9144 8.14962L18.1996 7.45035ZM18.2549 7.39501L18.2035 7.44644L18.9106 8.15353L18.962 8.1021L18.2549 7.39501ZM18.5187 7.00069C18.4576 7.14811 18.368 7.28203 18.2551 7.3948L18.9618 8.10231C19.1677 7.89666 19.331 7.65245 19.4424 7.38364L18.5187 7.00069ZM18.6112 6.5357C18.6112 6.69527 18.5798 6.85328 18.5187 7.0007L19.4424 7.38363C19.5539 7.11483 19.6112 6.82669 19.6112 6.5357H18.6112ZM18.5187 6.0707C18.5798 6.21811 18.6112 6.37612 18.6112 6.5357H19.6112C19.6112 6.2447 19.5539 5.95657 19.4424 5.68776L18.5187 6.0707ZM18.2551 5.67659C18.368 5.78936 18.4576 5.92329 18.5187 6.0707L19.4424 5.68776C19.331 5.41895 19.1677 5.17474 18.9618 4.96909L18.2551 5.67659ZM17.8606 5.41262C18.008 5.47373 18.1419 5.5633 18.2547 5.6762L18.9622 4.96948C18.7565 4.76361 18.5123 4.60028 18.2435 4.48885L17.8606 5.41262ZM17.3956 5.32006C17.5552 5.32006 17.7132 5.35152 17.8606 5.41262L18.2435 4.48885C17.9747 4.37742 17.6866 4.32006 17.3956 4.32006V5.32006ZM16.9306 5.41262C17.078 5.35152 17.236 5.32006 17.3956 5.32006V4.32006C17.1046 4.32006 16.8165 4.37742 16.5476 4.48885L16.9306 5.41262ZM16.5365 5.6762C16.6492 5.5633 16.7832 5.47373 16.9306 5.41262L16.5476 4.48885C16.2788 4.60028 16.0346 4.76361 15.829 4.96948L16.5365 5.6762ZM16.4849 5.72782L16.5363 5.67639L15.8292 4.96929L15.7777 5.02072L16.4849 5.72782ZM15.4839 6.24682C15.8602 6.17858 16.2075 5.99916 16.4809 5.7317L15.7817 5.01684C15.6511 5.14458 15.4852 5.23027 15.3055 5.26287L15.4839 6.24682ZM14.3694 6.11456C14.7193 6.26899 15.1075 6.31506 15.4839 6.24682L15.3055 5.26287C15.1257 5.29546 14.9403 5.27345 14.7732 5.19969L14.3694 6.11456ZM13.5324 5.41417C13.7385 5.72543 14.0312 5.96963 14.3743 6.1167L14.7683 5.19756C14.6044 5.12731 14.4646 5.01068 14.3661 4.86202L13.5324 5.41417ZM13.2142 4.36483C13.2156 4.73816 13.3263 5.10291 13.5324 5.41417L14.3661 4.86202C14.2677 4.71336 14.2149 4.53915 14.2141 4.36085L13.2142 4.36483ZM13.2142 4.2857V4.36284H14.2142V4.2857H13.2142ZM12.8585 3.42707C13.0862 3.65479 13.2142 3.96365 13.2142 4.2857H14.2142C14.2142 3.69843 13.9809 3.13522 13.5656 2.71996L12.8585 3.42707ZM11.9999 3.07141C12.3219 3.07141 12.6308 3.19934 12.8585 3.42707L13.5656 2.71996C13.1503 2.3047 12.5871 2.07141 11.9999 2.07141V3.07141ZM11.1412 3.42707C11.369 3.19935 11.6778 3.07141 11.9999 3.07141V2.07141C11.4126 2.07141 10.8494 2.3047 10.4341 2.71996L11.1412 3.42707ZM10.7856 4.2857C10.7856 3.96365 10.9135 3.65479 11.1412 3.42707L10.4341 2.71996C10.0189 3.13522 9.78558 3.69843 9.78558 4.2857H10.7856ZM10.7856 4.43141V4.2857H9.78558V4.43141H10.7856ZM10.4673 5.48274C10.6735 5.17148 10.7841 4.80673 10.7856 4.43341L9.78558 4.42942C9.78487 4.60772 9.73204 4.78193 9.63358 4.93059L10.4673 5.48274ZM9.6254 6.18527C9.96854 6.0382 10.2612 5.794 10.4673 5.48274L9.63358 4.93059C9.53513 5.07926 9.39536 5.19589 9.23147 5.26613L9.6254 6.18527ZM9.35986 6.2257H9.42843V5.2257H9.35986V6.2257ZM8.4473 6.31539C8.82365 6.38363 9.21182 6.33756 9.56174 6.18313L9.15798 5.26827C8.99085 5.34203 8.80546 5.36403 8.62571 5.33144L8.4473 6.31539ZM7.45023 5.80027C7.72366 6.06773 8.07094 6.24715 8.4473 6.31539L8.62571 5.33144C8.44595 5.29884 8.28008 5.21315 8.14949 5.08541L7.45023 5.80027ZM7.39487 5.74496L7.4463 5.79639L8.15342 5.08929L8.10199 5.03787L7.39487 5.74496ZM7.00057 5.4812C7.14799 5.5423 7.28191 5.63187 7.39468 5.74477L8.10218 5.03805C7.89654 4.83218 7.65232 4.66885 7.38351 4.55742L7.00057 5.4812ZM6.53558 5.38863C6.69515 5.38863 6.85316 5.42009 7.00057 5.4812L7.38352 4.55742C7.11471 4.44599 6.82657 4.38863 6.53558 4.38863V5.38863ZM6.07058 5.4812C6.21799 5.42009 6.376 5.38863 6.53558 5.38863V4.38863C6.24459 4.38863 5.95645 4.44599 5.68764 4.55742L6.07058 5.4812ZM5.67647 5.74477C5.78924 5.63187 5.92317 5.5423 6.07058 5.4812L5.68764 4.55742C5.41883 4.66885 5.17462 4.83218 4.96897 5.03805L5.67647 5.74477ZM5.4125 6.13927C5.47361 5.99186 5.56317 5.85794 5.67608 5.74516L4.96936 5.03766C4.76349 5.24331 4.60016 5.48752 4.48873 5.75633L5.4125 6.13927ZM5.31994 6.60427C5.31994 6.44469 5.35139 6.28668 5.4125 6.13927L4.48873 5.75633C4.3773 6.02514 4.31994 6.31328 4.31994 6.60427H5.31994ZM5.4125 7.06927C5.35139 6.92185 5.31994 6.76384 5.31994 6.60427H4.31994C4.31994 6.89526 4.3773 7.1834 4.48873 7.45221L5.4125 7.06927ZM5.67608 7.46338C5.56317 7.3506 5.47361 7.21668 5.4125 7.06927L4.48873 7.45221C4.60016 7.72102 4.76349 7.96523 4.96936 8.17088L5.67608 7.46338ZM5.7277 7.515L5.67627 7.46357L4.96917 8.17068L5.0206 8.22211L5.7277 7.515ZM6.2467 8.51599C6.17846 8.13963 5.99904 7.79235 5.73158 7.51892L5.01672 8.21819C5.14446 8.34878 5.23015 8.51465 5.26274 8.6944L6.2467 8.51599ZM6.11443 9.63044C6.26887 9.28051 6.31494 8.89234 6.2467 8.51599L5.26274 8.6944C5.29534 8.87415 5.27333 9.05954 5.19957 9.22667L6.11443 9.63044ZM5.44328 10.4974C5.75571 10.2739 5.99368 9.96165 6.12627 9.60114L5.18774 9.25596C5.12441 9.42815 5.01075 9.5773 4.86153 9.68402L5.44328 10.4974ZM4.37441 10.8541C4.75842 10.8451 5.13085 10.7208 5.44328 10.4974L4.86153 9.68402C4.71231 9.79075 4.53444 9.85011 4.35103 9.8544L4.37441 10.8541ZM4.28558 10.8543H4.36272V9.85427H4.28558V10.8543ZM3.42695 11.2099C3.65467 10.9822 3.96353 10.8543 4.28558 10.8543V9.85427C3.69831 9.85427 3.1351 10.0876 2.71984 10.5028L3.42695 11.2099ZM3.07129 12.0686C3.07129 11.7465 3.19922 11.4376 3.42695 11.2099L2.71984 10.5028C2.30458 10.9181 2.07129 11.4813 2.07129 12.0686H3.07129ZM3.42695 12.9272C3.19922 12.6995 3.07129 12.3906 3.07129 12.0686H2.07129C2.07129 12.6558 2.30458 13.219 2.71984 13.6343L3.42695 12.9272ZM4.28558 13.2828C3.96353 13.2828 3.65467 13.1549 3.42695 12.9272L2.71984 13.6343C3.1351 14.0495 3.69831 14.2828 4.28558 14.2828V13.2828ZM4.43129 13.2828H4.28558V14.2828H4.43129V13.2828ZM5.48262 13.6011C5.17136 13.395 4.80661 13.2843 4.43328 13.2828L4.4293 14.2828C4.6076 14.2835 4.78181 14.3364 4.93047 14.4348L5.48262 13.6011ZM6.18515 14.443C6.03808 14.0999 5.79388 13.8072 5.48262 13.6011L4.93047 14.4348C5.07914 14.5333 5.19577 14.6731 5.26601 14.8369L6.18515 14.443ZM6.31527 15.5525C6.38351 15.1762 6.33745 14.788 6.18301 14.4381L5.26815 14.8419C5.34191 15.009 5.36391 15.1944 5.33131 15.3741L6.31527 15.5525ZM5.80015 16.5496C6.06761 16.2762 6.24703 15.9289 6.31527 15.5525L5.33131 15.3741C5.29872 15.5539 5.21303 15.7198 5.08529 15.8504L5.80015 16.5496ZM5.74485 16.605L5.79628 16.5535L5.08916 15.8464L5.03773 15.8979L5.74485 16.605ZM5.48107 16.9993C5.54218 16.8519 5.63175 16.7179 5.74465 16.6052L5.03793 15.8977C4.83206 16.1033 4.66873 16.3475 4.5573 16.6163L5.48107 16.9993ZM5.38851 17.4643C5.38851 17.3047 5.41997 17.1467 5.48108 16.9993L4.5573 16.6163C4.44587 16.8851 4.38851 17.1733 4.38851 17.4643H5.38851ZM5.48108 17.9293C5.41997 17.7819 5.38851 17.6238 5.38851 17.4643H4.38851C4.38851 17.7553 4.44587 18.0434 4.5573 18.3122L5.48108 17.9293ZM5.74465 18.3234C5.63175 18.2106 5.54218 18.0767 5.48108 17.9293L4.5573 18.3122C4.66873 18.581 4.83206 18.8252 5.03794 19.0309L5.74465 18.3234ZM6.13915 18.5873C5.99174 18.5262 5.85782 18.4367 5.74504 18.3238L5.03754 19.0305C5.24319 19.2364 5.4874 19.3997 5.75621 19.5111L6.13915 18.5873ZM6.60415 18.6799C6.44457 18.6799 6.28656 18.6484 6.13915 18.5873L5.75621 19.5111C6.02502 19.6225 6.31315 19.6799 6.60415 19.6799V18.6799ZM7.06915 18.5873C6.92173 18.6484 6.76372 18.6799 6.60415 18.6799V19.6799C6.89514 19.6799 7.18327 19.6225 7.45208 19.5111L7.06915 18.5873ZM7.46325 18.3238C7.35048 18.4367 7.21656 18.5262 7.06914 18.5873L7.45209 19.5111C7.72089 19.3997 7.9651 19.2364 8.17075 19.0305L7.46325 18.3238ZM7.51488 18.2721L7.46345 18.3236L8.17056 19.0307L8.22199 18.9792L7.51488 18.2721ZM8.51587 17.7531C8.13951 17.8214 7.79223 18.0008 7.5188 18.2683L8.21806 18.9831C8.34866 18.8554 8.51452 18.7697 8.69427 18.7371L8.51587 17.7531ZM9.63032 17.8854C9.28039 17.731 8.89222 17.6849 8.51587 17.7531L8.69427 18.7371C8.87403 18.7045 9.05942 18.7265 9.22655 18.8003L9.63032 17.8854ZM10.4973 18.5566C10.2738 18.2441 9.96153 18.0062 9.60103 17.8736L9.25584 18.8121C9.42803 18.8754 9.57718 18.9891 9.6839 19.1383L10.4973 18.5566ZM10.854 19.6254C10.845 19.2414 10.7207 18.869 10.4973 18.5566L9.6839 19.1383C9.79063 19.2875 9.84999 19.4654 9.85428 19.6488L10.854 19.6254ZM10.8541 19.7143V19.6371H9.85415V19.7143H10.8541ZM11.2098 20.5729C10.9821 20.3452 10.8541 20.0363 10.8541 19.7143H9.85415C9.85415 20.3015 10.0874 20.8647 10.5027 21.28L11.2098 20.5729ZM12.0684 20.9286C11.7464 20.9286 11.4375 20.8006 11.2098 20.5729L10.5027 21.28C10.918 21.6953 11.4812 21.9286 12.0684 21.9286V20.9286ZM12.9271 20.5729C12.6993 20.8006 12.3905 20.9286 12.0684 20.9286V21.9286C12.6557 21.9286 13.2189 21.6953 13.6342 21.28L12.9271 20.5729ZM13.2827 19.7143C13.2827 20.0363 13.1548 20.3452 12.9271 20.5729L13.6342 21.28C14.0494 20.8647 14.2827 20.3015 14.2827 19.7143H13.2827ZM13.2827 19.5686V19.7143H14.2827V19.5686H13.2827ZM13.601 18.5172C13.3948 18.8285 13.2842 19.1932 13.2827 19.5666L14.2827 19.5705C14.2834 19.3922 14.3363 19.218 14.4347 19.0694L13.601 18.5172ZM14.4429 17.8147C14.0998 17.9618 13.8071 18.206 13.601 18.5172L14.4347 19.0694C14.5332 18.9207 14.6729 18.8041 14.8368 18.7338L14.4429 17.8147ZM15.5524 17.6846C15.1761 17.6163 14.7879 17.6624 14.438 17.8168L14.8417 18.7317C15.0089 18.6579 15.1943 18.6359 15.374 18.6685L15.5524 17.6846ZM16.5495 18.1997C16.2761 17.9322 15.9288 17.7528 15.5524 17.6846L15.374 18.6685C15.5538 18.7011 15.7196 18.7868 15.8502 18.9146L16.5495 18.1997ZM16.6049 18.255L16.5534 18.2036L15.8463 18.9107L15.8977 18.9621L16.6049 18.255ZM16.9992 18.5188C16.8517 18.4577 16.7178 18.3681 16.605 18.2552L15.8975 18.9619C16.1032 19.1678 16.3474 19.3311 16.6162 19.4425L16.9992 18.5188ZM17.4642 18.6113C17.3046 18.6113 17.1466 18.5799 16.9992 18.5188L16.6162 19.4425C16.885 19.554 17.1732 19.6113 17.4642 19.6113V18.6113ZM17.9292 18.5188C17.7817 18.5799 17.6237 18.6113 17.4642 18.6113V19.6113C17.7551 19.6113 18.0433 19.554 18.3121 19.4425L17.9292 18.5188ZM18.3233 18.2552C18.2105 18.3681 18.0766 18.4577 17.9292 18.5188L18.3121 19.4425C18.5809 19.3311 18.8251 19.1678 19.0308 18.9619L18.3233 18.2552ZM18.5872 17.8607C18.5261 18.0081 18.4366 18.142 18.3237 18.2548L19.0304 18.9623C19.2362 18.7567 19.3996 18.5124 19.511 18.2436L18.5872 17.8607ZM18.6798 17.3957C18.6798 17.5553 18.6483 17.7133 18.5872 17.8607L19.511 18.2436C19.6224 17.9748 19.6798 17.6867 19.6798 17.3957H18.6798ZM18.5872 16.9307C18.6483 17.0781 18.6798 17.2361 18.6798 17.3957H19.6798C19.6798 17.1047 19.6224 16.8166 19.511 16.5478L18.5872 16.9307ZM18.3237 16.5366C18.4366 16.6494 18.5261 16.7833 18.5872 16.9307L19.511 16.5478C19.3996 16.2789 19.2362 16.0347 19.0304 15.8291L18.3237 16.5366ZM18.272 16.485L18.3235 16.5364L19.0306 15.8293L18.9791 15.7779L18.272 16.485ZM17.753 15.484C17.8213 15.8603 18.0007 16.2076 18.2682 16.481L18.983 15.7818C18.8553 15.6512 18.7696 15.4853 18.737 15.3056L17.753 15.484ZM11.9999 15.0714C13.6962 15.0714 15.0713 13.6963 15.0713 12H14.0713C14.0713 13.144 13.1439 14.0714 11.9999 14.0714V15.0714ZM8.92843 12C8.92843 13.6963 10.3036 15.0714 11.9999 15.0714V14.0714C10.8558 14.0714 9.92843 13.144 9.92843 12H8.92843ZM11.9999 8.92855C10.3036 8.92855 8.92843 10.3037 8.92843 12H9.92843C9.92843 10.856 10.8558 9.92855 11.9999 9.92855V8.92855ZM15.0713 12C15.0713 10.3037 13.6962 8.92855 11.9999 8.92855V9.92855C13.1439 9.92855 14.0713 10.856 14.0713 12H15.0713Z" fill="#F5F6FA"/>
</svg>
