<svg width="21" height="22" viewBox="0 0 21 22" fill="none" xmlns="http://www.w3.org/2000/svg">
<path d="M7.5 6.5H17.25M7.5 11H17.25M7.5 15.5H17.25" stroke="#8996A3" stroke-linecap="round" stroke-linejoin="round"/>
<path d="M4 6.5C4 6.63807 3.88807 6.75 3.75 6.75C3.61193 6.75 3.5 6.63807 3.5 6.5C3.5 6.36193 3.61193 6.25 3.75 6.25C3.88807 6.25 4 6.36193 4 6.5ZM4 11C4 11.1381 3.88807 11.25 3.75 11.25C3.61193 11.25 3.5 11.1381 3.5 11C3.5 10.8619 3.61193 10.75 3.75 10.75C3.88807 10.75 4 10.8619 4 11ZM4 15.5C4 15.6381 3.88807 15.75 3.75 15.75C3.61193 15.75 3.5 15.6381 3.5 15.5C3.5 15.3619 3.61193 15.25 3.75 15.25C3.88807 15.25 4 15.3619 4 15.5Z" stroke="#555555"/>
</svg>
