<svg width="24" height="24" viewBox="0 0 24 24" fill="none" xmlns="http://www.w3.org/2000/svg">
<mask id="path-1-inside-1" fill="white">
<path d="M6.38561 6.0945L3.42847 12.0002V17.1431C3.42847 17.5977 3.60908 18.0338 3.93057 18.3553C4.25206 18.6767 4.6881 18.8574 5.14275 18.8574H18.857C19.3117 18.8574 19.7477 18.6767 20.0692 18.3553C20.3907 18.0338 20.5713 17.5977 20.5713 17.1431V12.0002L17.6142 6.0945C17.4723 5.80888 17.2535 5.56853 16.9824 5.40045C16.7114 5.23237 16.3988 5.14324 16.0799 5.14307H7.91989C7.60097 5.14324 7.28841 5.23237 7.01736 5.40045C6.74632 5.56853 6.52753 5.80888 6.38561 6.0945Z"/>
</mask>
<path d="M20.5713 12.5002C20.8475 12.5002 21.0713 12.2764 21.0713 12.0002C21.0713 11.7241 20.8475 11.5002 20.5713 11.5002V12.5002ZM3.42847 11.5002C3.15232 11.5002 2.92847 11.7241 2.92847 12.0002C2.92847 12.2764 3.15232 12.5002 3.42847 12.5002V11.5002ZM20.5713 11.5002H3.42847V12.5002H20.5713V11.5002ZM20.5713 12.0002H21.5713C21.5713 11.8448 21.5351 11.6915 21.4655 11.5525L20.5713 12.0002ZM3.42847 12.0002L2.5343 11.5525C2.4647 11.6915 2.42847 11.8448 2.42847 12.0002H3.42847ZM6.38561 6.0945L7.27978 6.54223L7.28114 6.53949L6.38561 6.0945ZM3.42847 17.1431H2.42847H3.42847ZM17.6142 6.0945L16.7186 6.5395L16.72 6.54223L17.6142 6.0945ZM16.0799 5.14307L16.0804 4.14307H16.0799V5.14307ZM7.91989 5.14307V4.14307L7.91936 4.14307L7.91989 5.14307ZM5.49144 5.64676L2.5343 11.5525L4.32263 12.4479L7.27978 6.54223L5.49144 5.64676ZM2.42847 12.0002V17.1431H4.42847V12.0002H2.42847ZM2.42847 17.1431C2.42847 17.8629 2.71444 18.5533 3.22346 19.0624L4.63768 17.6481C4.50372 17.5142 4.42847 17.3325 4.42847 17.1431H2.42847ZM3.22346 19.0624C3.73249 19.5714 4.42288 19.8574 5.14275 19.8574V17.8574C4.95331 17.8574 4.77163 17.7821 4.63768 17.6481L3.22346 19.0624ZM5.14275 19.8574H18.857V17.8574H5.14275V19.8574ZM18.857 19.8574C19.5769 19.8574 20.2673 19.5714 20.7763 19.0624L19.3621 17.6481C19.2282 17.7821 19.0465 17.8574 18.857 17.8574V19.8574ZM20.7763 19.0624C21.2854 18.5533 21.5713 17.8629 21.5713 17.1431H19.5713C19.5713 17.3325 19.4961 17.5142 19.3621 17.6481L20.7763 19.0624ZM21.5713 17.1431V12.0002H19.5713V17.1431H21.5713ZM21.4655 11.5525L18.5083 5.64676L16.72 6.54223L19.6772 12.4479L21.4655 11.5525ZM18.5097 5.6495C18.285 5.19728 17.9386 4.81671 17.5094 4.55059L16.4554 6.25031C16.5684 6.32034 16.6595 6.42049 16.7186 6.53949L18.5097 5.6495ZM17.5094 4.55059C17.0803 4.28446 16.5854 4.14333 16.0804 4.14307L16.0794 6.14307C16.2123 6.14314 16.3425 6.18028 16.4554 6.25031L17.5094 4.55059ZM16.0799 4.14307H7.91989V6.14307H16.0799V4.14307ZM7.91936 4.14307C7.41439 4.14333 6.91951 4.28447 6.49035 4.55059L7.54437 6.25031C7.65731 6.18028 7.78754 6.14314 7.92043 6.14307L7.91936 4.14307ZM6.49035 4.55059C6.0612 4.81671 5.71479 5.19728 5.49008 5.6495L7.28114 6.53949C7.34027 6.42049 7.43143 6.32034 7.54437 6.25031L6.49035 4.55059Z" fill="#56606B" mask="url(#path-1-inside-1)"/>
<mask id="path-3-inside-2" fill="white">
<path d="M7.38421 15.0798C7.38421 15.5532 7.00045 15.9369 6.52706 15.9369C6.05368 15.9369 5.66992 15.5532 5.66992 15.0798C5.66992 14.6064 6.05368 14.2227 6.52706 14.2227C7.00045 14.2227 7.38421 14.6064 7.38421 15.0798Z"/>
</mask>
<path d="M7.38421 15.0798C7.38421 15.5532 7.00045 15.9369 6.52706 15.9369C6.05368 15.9369 5.66992 15.5532 5.66992 15.0798C5.66992 14.6064 6.05368 14.2227 6.52706 14.2227C7.00045 14.2227 7.38421 14.6064 7.38421 15.0798Z" fill="#555555"/>
<path d="M6.38421 15.0798C6.38421 15.0009 6.44817 14.9369 6.52706 14.9369V16.9369C7.55274 16.9369 8.38421 16.1055 8.38421 15.0798H6.38421ZM6.52706 14.9369C6.60596 14.9369 6.66992 15.0009 6.66992 15.0798H4.66992C4.66992 16.1055 5.50139 16.9369 6.52706 16.9369V14.9369ZM6.66992 15.0798C6.66992 15.1587 6.60596 15.2227 6.52706 15.2227V13.2227C5.50139 13.2227 4.66992 14.0541 4.66992 15.0798H6.66992ZM6.52706 15.2227C6.44817 15.2227 6.38421 15.1587 6.38421 15.0798H8.38421C8.38421 14.0541 7.55274 13.2227 6.52706 13.2227V15.2227Z" fill="#56606B" mask="url(#path-3-inside-2)"/>
<mask id="path-5-inside-3" fill="white">
<path d="M9.95574 15.0798C9.95574 15.5532 9.57198 15.9369 9.0986 15.9369C8.62521 15.9369 8.24146 15.5532 8.24146 15.0798C8.24146 14.6064 8.62521 14.2227 9.0986 14.2227C9.57198 14.2227 9.95574 14.6064 9.95574 15.0798Z"/>
</mask>
<path d="M9.95574 15.0798C9.95574 15.5532 9.57198 15.9369 9.0986 15.9369C8.62521 15.9369 8.24146 15.5532 8.24146 15.0798C8.24146 14.6064 8.62521 14.2227 9.0986 14.2227C9.57198 14.2227 9.95574 14.6064 9.95574 15.0798Z" fill="#555555"/>
<path d="M8.95574 15.0798C8.95574 15.0009 9.0197 14.9369 9.0986 14.9369V16.9369C10.1243 16.9369 10.9557 16.1055 10.9557 15.0798H8.95574ZM9.0986 14.9369C9.1775 14.9369 9.24146 15.0009 9.24146 15.0798H7.24146C7.24146 16.1055 8.07293 16.9369 9.0986 16.9369V14.9369ZM9.24146 15.0798C9.24146 15.1587 9.1775 15.2227 9.0986 15.2227V13.2227C8.07293 13.2227 7.24146 14.0541 7.24146 15.0798H9.24146ZM9.0986 15.2227C9.0197 15.2227 8.95574 15.1587 8.95574 15.0798H10.9557C10.9557 14.0541 10.1243 13.2227 9.0986 13.2227V15.2227Z" fill="#56606B" mask="url(#path-5-inside-3)"/>
</svg>
