<svg width="21" height="21" viewBox="0 0 21 21" fill="none" xmlns="http://www.w3.org/2000/svg">
<mask id="path-1-inside-1" fill="white">
<path d="M10.4999 3.71422C6.75228 3.71422 3.71422 6.75228 3.71422 10.4999C3.71422 14.2476 6.75228 17.2856 10.4999 17.2856C14.2476 17.2856 17.2856 14.2476 17.2856 10.4999C17.2856 6.75228 14.2476 3.71422 10.4999 3.71422Z"/>
</mask>
<path d="M9.99993 13.2142C9.99993 13.4904 10.2238 13.7142 10.4999 13.7142C10.7761 13.7142 10.9999 13.4904 10.9999 13.2142H9.99993ZM10.9999 10.4999C10.9999 10.2238 10.7761 9.99993 10.4999 9.99993C10.2238 9.99993 9.99993 10.2238 9.99993 10.4999H10.9999ZM10.9999 13.2142V10.4999H9.99993V13.2142H10.9999ZM4.71422 10.4999C4.71422 7.30457 7.30457 4.71422 10.4999 4.71422V2.71422C6.2 2.71422 2.71422 6.2 2.71422 10.4999H4.71422ZM10.4999 4.71422C13.6953 4.71422 16.2856 7.30457 16.2856 10.4999H18.2856C18.2856 6.2 14.7999 2.71422 10.4999 2.71422V4.71422ZM16.2856 10.4999C16.2856 13.6953 13.6953 16.2856 10.4999 16.2856V18.2856C14.7999 18.2856 18.2856 14.7999 18.2856 10.4999H16.2856ZM10.4999 16.2856C7.30457 16.2856 4.71422 13.6953 4.71422 10.4999H2.71422C2.71422 14.7999 6.2 18.2856 10.4999 18.2856V16.2856Z" fill="#7B558D" mask="url(#path-1-inside-1)"/>
<mask id="path-3-inside-2" fill="white">
<path d="M9.82157 7.78578C9.82157 7.41102 10.1254 7.10721 10.5001 7.10721C10.8749 7.10721 11.1787 7.41102 11.1787 7.78578C11.1787 8.16055 10.8749 8.46436 10.5001 8.46436C10.1254 8.46436 9.82157 8.16055 9.82157 7.78578Z"/>
</mask>
<path d="M9.82157 7.78578C9.82157 7.41102 10.1254 7.10721 10.5001 7.10721C10.8749 7.10721 11.1787 7.41102 11.1787 7.78578C11.1787 8.16055 10.8749 8.46436 10.5001 8.46436C10.1254 8.46436 9.82157 8.16055 9.82157 7.78578Z" fill="#7B558D"/>
<path d="M10.8216 7.78578C10.8216 7.9633 10.6777 8.10721 10.5001 8.10721V6.10721C9.57309 6.10721 8.82157 6.85873 8.82157 7.78578H10.8216ZM10.5001 8.10721C10.3226 8.10721 10.1787 7.9633 10.1787 7.78578H12.1787C12.1787 6.85873 11.4272 6.10721 10.5001 6.10721V8.10721ZM10.1787 7.78578C10.1787 7.60826 10.3226 7.46436 10.5001 7.46436V9.46436C11.4272 9.46436 12.1787 8.71283 12.1787 7.78578H10.1787ZM10.5001 7.46436C10.6777 7.46436 10.8216 7.60826 10.8216 7.78578H8.82157C8.82157 8.71283 9.57309 9.46436 10.5001 9.46436V7.46436Z" fill="#7B558D" mask="url(#path-3-inside-2)"/>
</svg>
