<svg width="24" height="24" viewBox="0 0 24 24" fill="none" xmlns="http://www.w3.org/2000/svg">
<path d="M18.343 14.5713L18.8004 14.7732L18.8025 14.7683L18.343 14.5713ZM18.2453 15.3947L18.7372 15.3054L18.2453 15.3947ZM18.862 13.9493L18.5859 13.5324L18.5859 13.5324L18.862 13.9493ZM19.6373 13.7141V13.2141L19.6353 13.2142L19.6373 13.7141ZM20.9266 13.212L21.2801 13.5656L20.9266 13.212ZM20.9266 10.7877L21.2801 10.4341V10.4341L20.9266 10.7877ZM19.5687 10.2856L19.5667 10.7856H19.5687V10.2856ZM18.7934 10.0505L19.0695 9.63358L19.0695 9.63358L18.7934 10.0505ZM18.2744 9.42843H17.7744C17.7744 9.49615 17.7882 9.56316 17.8148 9.6254L18.2744 9.42843ZM18.2744 9.35986H18.7744C18.7744 9.29034 18.7599 9.22158 18.7318 9.15798L18.2744 9.35986ZM18.1767 8.5365L17.6847 8.44729L18.1767 8.5365ZM18.5573 7.79986L18.2037 7.44629L18.1998 7.45023L18.5573 7.79986ZM18.6087 7.74843L18.2553 7.39468L18.2551 7.39489L18.6087 7.74843ZM18.9808 7.19204L19.4427 7.38352L19.4427 7.38351L18.9808 7.19204ZM18.9808 5.87911L19.4427 5.68764L19.4427 5.68763L18.9808 5.87911ZM18.6087 5.32272L18.2549 5.67607L18.2553 5.67647L18.6087 5.32272ZM18.0523 4.95062L17.8608 5.4125V5.4125L18.0523 4.95062ZM16.7394 4.95062L16.9308 5.4125V5.4125L16.7394 4.95062ZM16.183 5.32272L16.5365 5.67627L16.5367 5.67607L16.183 5.32272ZM16.1315 5.37415L16.4812 5.7316L16.4851 5.72769L16.1315 5.37415ZM15.3949 5.75472L15.4841 6.2467L15.3949 5.75472ZM14.5715 5.657L14.7734 5.19955L14.7685 5.19743L14.5715 5.657ZM13.9495 5.13797L14.3664 4.8619V4.8619L13.9495 5.13797ZM13.7144 4.36272H13.2144L13.2144 4.36471L13.7144 4.36272ZM13.2123 3.07339L13.5658 2.71984L13.5658 2.71984L13.2123 3.07339ZM10.7879 3.07339L11.1415 3.42695L11.1415 3.42694L10.7879 3.07339ZM10.2858 4.43129L10.7858 4.43328V4.43129H10.2858ZM10.0507 5.20655L10.4676 5.48262L10.4676 5.48262L10.0507 5.20655ZM9.42868 5.72557V6.22557C9.49639 6.22557 9.5634 6.21182 9.62564 6.18514L9.42868 5.72557ZM9.3601 5.72557V5.22557C9.29058 5.22557 9.22183 5.24007 9.15822 5.26814L9.3601 5.72557ZM8.53675 5.82329L8.62595 5.33131L8.53675 5.82329ZM7.8001 5.44272L7.44652 5.79629L7.45047 5.80015L7.8001 5.44272ZM7.74868 5.39129L7.39493 5.74465L7.39512 5.74483L7.74868 5.39129ZM7.19229 5.01919L7.00082 5.48107L7.00082 5.48107L7.19229 5.01919ZM5.87935 5.01919L6.07082 5.48107L6.07082 5.48107L5.87935 5.01919ZM5.32296 5.39129L5.67632 5.74504L5.67671 5.74465L5.32296 5.39129ZM4.95086 5.94768L4.48897 5.75621L4.48897 5.75621L4.95086 5.94768ZM4.95086 7.26062L4.48897 7.45209L4.48897 7.45209L4.95086 7.26062ZM5.32296 7.817L5.67651 7.46345L5.67632 7.46325L5.32296 7.817ZM5.37439 7.86843L5.73185 7.51878L5.72794 7.51488L5.37439 7.86843ZM5.75497 8.60507L5.26299 8.69427V8.69428L5.75497 8.60507ZM5.65725 9.42843L5.19982 9.22655C5.19556 9.23619 5.19162 9.24596 5.18798 9.25584L5.65725 9.42843ZM4.36296 10.3541V10.8543L4.37466 10.854L4.36296 10.3541ZM3.07364 10.8562L2.72008 10.5027H2.72008L3.07364 10.8562ZM3.07364 13.2806L2.72008 13.6342L2.72008 13.6342L3.07364 13.2806ZM4.43153 13.7827L4.43353 13.2827H4.43153V13.7827ZM5.20679 14.0178L4.93071 14.4347L4.93071 14.4347L5.20679 14.0178ZM5.72582 14.6399L5.26622 14.8368L5.26839 14.8417L5.72582 14.6399ZM5.82354 15.4632L6.31552 15.5524L5.82354 15.4632ZM5.44296 16.1999L5.79654 16.5534L5.80039 16.5495L5.44296 16.1999ZM5.39154 16.2513L5.74489 16.605L5.74509 16.6048L5.39154 16.2513ZM5.01943 16.8077L4.55755 16.6162H4.55755L5.01943 16.8077ZM5.01943 18.1206L5.48132 17.9291L5.01943 18.1206ZM5.39154 18.677L5.74529 18.3236L5.74489 18.3233L5.39154 18.677ZM5.94792 19.0491L5.75645 19.511L5.75645 19.511L5.94792 19.0491ZM7.26086 19.0491L7.45233 19.511L7.45233 19.511L7.26086 19.0491ZM7.81725 18.677L7.46369 18.3235L7.4635 18.3236L7.81725 18.677ZM7.86868 18.6256L7.51902 18.2681L7.51512 18.272L7.86868 18.6256ZM8.60531 18.245L8.69452 18.737L8.60531 18.245ZM9.42868 18.3427L9.2268 18.8001C9.23643 18.8044 9.2462 18.8083 9.25609 18.812L9.42868 18.3427ZM10.3544 19.637H10.8545L10.8543 19.6253L10.3544 19.637ZM10.8565 20.9263L11.2101 20.5728L10.8565 20.9263ZM13.2809 20.9263L13.6344 21.2799L13.2809 20.9263ZM13.783 19.5684L13.283 19.5664V19.5684H13.783ZM14.6401 18.2741L14.8371 18.7337L14.842 18.7316L14.6401 18.2741ZM15.4635 18.1764L15.5527 17.6845L15.5527 17.6844L15.4635 18.1764ZM16.2001 18.557L16.5537 18.2034L16.5497 18.1996L16.2001 18.557ZM16.2515 18.6084L16.6053 18.2551L16.6051 18.2549L16.2515 18.6084ZM16.8079 18.9805L16.9994 18.5186L16.9994 18.5186L16.8079 18.9805ZM18.1209 18.9805L17.9294 18.5186L17.9294 18.5186L18.1209 18.9805ZM18.6773 18.6084L18.3239 18.2547L18.3235 18.2551L18.6773 18.6084ZM19.0494 18.052L19.5112 18.2435L19.5112 18.2435L19.0494 18.052ZM19.0494 16.7391L19.5112 16.5476L19.5112 16.5476L19.0494 16.7391ZM18.6773 16.1827L18.3237 16.5363L18.3239 16.5365L18.6773 16.1827ZM18.6258 16.1313L18.2684 16.4809L18.2723 16.4848L18.6258 16.1313ZM17.8855 14.3694C17.7311 14.7193 17.685 15.1075 17.7533 15.4839L18.7372 15.3054C18.7046 15.1257 18.7266 14.9403 18.8004 14.7732L17.8855 14.3694ZM18.5859 13.5324C18.2747 13.7385 18.0305 14.0312 17.8834 14.3743L18.8025 14.7683C18.8728 14.6044 18.9894 14.4646 19.1381 14.3661L18.5859 13.5324ZM19.6353 13.2142C19.2619 13.2156 18.8972 13.3263 18.5859 13.5324L19.1381 14.3661C19.2867 14.2677 19.4609 14.2149 19.6392 14.2141L19.6353 13.2142ZM19.7144 13.2141H19.6373V14.2141H19.7144V13.2141ZM20.573 12.8585C20.3453 13.0862 20.0364 13.2141 19.7144 13.2141V14.2141C20.3017 14.2141 20.8649 13.9809 21.2801 13.5656L20.573 12.8585ZM20.9287 11.9999C20.9287 12.3219 20.8008 12.6308 20.573 12.8585L21.2801 13.5656C21.6954 13.1503 21.9287 12.5871 21.9287 11.9999H20.9287ZM20.573 11.1412C20.8008 11.369 20.9287 11.6778 20.9287 11.9999H21.9287C21.9287 11.4126 21.6954 10.8494 21.2801 10.4341L20.573 11.1412ZM19.7144 10.7856C20.0364 10.7856 20.3453 10.9135 20.573 11.1412L21.2801 10.4341C20.8649 10.0189 20.3017 9.78557 19.7144 9.78557V10.7856ZM19.5687 10.7856H19.7144V9.78557H19.5687V10.7856ZM18.5174 10.4673C18.8286 10.6735 19.1934 10.7841 19.5667 10.7856L19.5707 9.78558C19.3924 9.78487 19.2182 9.73203 19.0695 9.63358L18.5174 10.4673ZM17.8148 9.6254C17.9619 9.96854 18.2061 10.2612 18.5174 10.4673L19.0695 9.63358C18.9208 9.53513 18.8042 9.39535 18.734 9.23147L17.8148 9.6254ZM17.7744 9.35986V9.42843H18.7744V9.35986H17.7744ZM17.6847 8.44729C17.6165 8.82365 17.6625 9.21182 17.817 9.56174L18.7318 9.15798C18.6581 8.99085 18.6361 8.80545 18.6687 8.6257L17.6847 8.44729ZM18.1998 7.45023C17.9324 7.72365 17.7529 8.07094 17.6847 8.44729L18.6687 8.6257C18.7013 8.44595 18.7869 8.28009 18.9147 8.14949L18.1998 7.45023ZM18.2551 7.39489L18.2037 7.44632L18.9108 8.15341L18.9622 8.10198L18.2551 7.39489ZM18.5189 7.00057C18.4578 7.14799 18.3682 7.28191 18.2553 7.39468L18.962 8.10218C19.1679 7.89653 19.3312 7.65232 19.4427 7.38352L18.5189 7.00057ZM18.6115 6.53557C18.6115 6.69515 18.58 6.85316 18.5189 7.00058L19.4427 7.38351C19.5541 7.1147 19.6115 6.82657 19.6115 6.53557H18.6115ZM18.5189 6.07057C18.58 6.21799 18.6115 6.376 18.6115 6.53557H19.6115C19.6115 6.24458 19.5541 5.95645 19.4427 5.68764L18.5189 6.07057ZM18.2553 5.67647C18.3682 5.78924 18.4578 5.92316 18.5189 6.07058L19.4427 5.68763C19.3312 5.41883 19.1679 5.17461 18.962 4.96897L18.2553 5.67647ZM17.8608 5.4125C18.0082 5.47361 18.1422 5.56317 18.2549 5.67607L18.9624 4.96936C18.7568 4.76349 18.5126 4.60016 18.2438 4.48873L17.8608 5.4125ZM17.3958 5.31994C17.5554 5.31994 17.7134 5.35139 17.8608 5.4125L18.2438 4.48873C17.975 4.3773 17.6868 4.31994 17.3958 4.31994V5.31994ZM16.9308 5.4125C17.0782 5.35139 17.2362 5.31994 17.3958 5.31994V4.31994C17.1048 4.31994 16.8167 4.3773 16.5479 4.48873L16.9308 5.4125ZM16.5367 5.67607C16.6495 5.56318 16.7834 5.47361 16.9308 5.4125L16.5479 4.48873C16.2791 4.60016 16.0349 4.76348 15.8292 4.96936L16.5367 5.67607ZM16.4851 5.72769L16.5365 5.67627L15.8294 4.96917L15.778 5.0206L16.4851 5.72769ZM15.4841 6.2467C15.8605 6.17846 16.2077 5.99904 16.4812 5.73158L15.7819 5.01672C15.6513 5.14446 15.4854 5.23015 15.3057 5.26274L15.4841 6.2467ZM14.3697 6.11443C14.7196 6.26887 15.1077 6.31494 15.4841 6.2467L15.3057 5.26274C15.1259 5.29534 14.9406 5.27333 14.7734 5.19957L14.3697 6.11443ZM13.5326 5.41405C13.7388 5.72531 14.0314 5.96951 14.3746 6.11657L14.7685 5.19743C14.6046 5.12719 14.4648 5.01056 14.3664 4.8619L13.5326 5.41405ZM13.2144 4.36471C13.2159 4.73804 13.3265 5.10279 13.5326 5.41405L14.3664 4.8619C14.2679 4.71324 14.2151 4.53903 14.2144 4.36072L13.2144 4.36471ZM13.2144 4.28557V4.36272H14.2144V4.28557H13.2144ZM12.8587 3.42694C13.0865 3.65467 13.2144 3.96353 13.2144 4.28557H14.2144C14.2144 3.69831 13.9811 3.1351 13.5658 2.71984L12.8587 3.42694ZM12.0001 3.07129C12.3222 3.07129 12.631 3.19922 12.8587 3.42695L13.5658 2.71984C13.1506 2.30458 12.5874 2.07129 12.0001 2.07129V3.07129ZM11.1415 3.42694C11.3692 3.19922 11.6781 3.07129 12.0001 3.07129V2.07129C11.4128 2.07129 10.8496 2.30458 10.4344 2.71984L11.1415 3.42694ZM10.7858 4.28557C10.7858 3.96353 10.9138 3.65467 11.1415 3.42695L10.4344 2.71984C10.0191 3.1351 9.78582 3.69831 9.78582 4.28557H10.7858ZM10.7858 4.43129V4.28557H9.78582V4.43129H10.7858ZM10.4676 5.48262C10.6737 5.17136 10.7843 4.80661 10.7858 4.43328L9.78583 4.4293C9.78512 4.6076 9.73228 4.78181 9.63383 4.93047L10.4676 5.48262ZM9.62564 6.18514C9.96879 6.03808 10.2614 5.79388 10.4676 5.48262L9.63383 4.93047C9.53538 5.07913 9.3956 5.19576 9.23171 5.266L9.62564 6.18514ZM9.3601 6.22557H9.42868V5.22557H9.3601V6.22557ZM8.44754 6.31527C8.82389 6.38351 9.21206 6.33744 9.56199 6.18301L9.15822 5.26814C8.99109 5.3419 8.8057 5.36391 8.62595 5.33131L8.44754 6.31527ZM7.45047 5.80015C7.7239 6.06761 8.07119 6.24703 8.44754 6.31527L8.62595 5.33131C8.4462 5.29872 8.28033 5.21303 8.14974 5.08529L7.45047 5.80015ZM7.39512 5.74483L7.44654 5.79626L8.15367 5.08917L8.10224 5.03774L7.39512 5.74483ZM7.00082 5.48107C7.14823 5.54218 7.28215 5.63175 7.39493 5.74465L8.10243 5.03793C7.89678 4.83206 7.65257 4.66873 7.38376 4.5573L7.00082 5.48107ZM6.53582 5.38851C6.6954 5.38851 6.85341 5.41997 7.00082 5.48107L7.38376 4.5573C7.11495 4.44587 6.82681 4.38851 6.53582 4.38851V5.38851ZM6.07082 5.48107C6.21823 5.41997 6.37624 5.38851 6.53582 5.38851V4.38851C6.24483 4.38851 5.95669 4.44587 5.68788 4.5573L6.07082 5.48107ZM5.67671 5.74465C5.78949 5.63175 5.92341 5.54218 6.07082 5.48107L5.68788 4.5573C5.41907 4.66873 5.17486 4.83206 4.96921 5.03793L5.67671 5.74465ZM5.41275 6.13915C5.47385 5.99174 5.56342 5.85781 5.67632 5.74504L4.96961 5.03754C4.76373 5.24319 4.60041 5.4874 4.48897 5.75621L5.41275 6.13915ZM5.32018 6.60415C5.32018 6.44457 5.35164 6.28656 5.41275 6.13915L4.48897 5.75621C4.37754 6.02502 4.32018 6.31315 4.32018 6.60415H5.32018ZM5.41275 7.06915C5.35164 6.92173 5.32018 6.76372 5.32018 6.60415H4.32018C4.32018 6.89514 4.37754 7.18328 4.48897 7.45209L5.41275 7.06915ZM5.67632 7.46325C5.56342 7.35048 5.47385 7.21656 5.41275 7.06914L4.48897 7.45209C4.60041 7.7209 4.76373 7.96511 4.96961 8.17075L5.67632 7.46325ZM5.72794 7.51488L5.67651 7.46345L4.96941 8.17056L5.02084 8.22199L5.72794 7.51488ZM6.24695 8.51587C6.17871 8.13951 5.99929 7.79223 5.73182 7.5188L5.01696 8.21806C5.1447 8.34866 5.2304 8.51452 5.26299 8.69427L6.24695 8.51587ZM6.11468 9.63031C6.26912 9.28039 6.31519 8.89222 6.24695 8.51587L5.26299 8.69428C5.29558 8.87403 5.27358 9.05942 5.19982 9.22655L6.11468 9.63031ZM5.44352 10.4973C5.75595 10.2738 5.99393 9.96153 6.12652 9.60102L5.18798 9.25584C5.12465 9.42803 5.01099 9.57717 4.86177 9.6839L5.44352 10.4973ZM4.37466 10.854C4.75867 10.845 5.13109 10.7207 5.44352 10.4973L4.86177 9.6839C4.71256 9.79063 4.53468 9.84999 4.35127 9.85428L4.37466 10.854ZM4.28582 10.8541H4.36296V9.85415H4.28582V10.8541ZM3.42719 11.2098C3.65491 10.9821 3.96377 10.8541 4.28582 10.8541V9.85415C3.69856 9.85415 3.13534 10.0874 2.72008 10.5027L3.42719 11.2098ZM3.07153 12.0684C3.07153 11.7464 3.19947 11.4375 3.42719 11.2098L2.72008 10.5027C2.30482 10.918 2.07153 11.4812 2.07153 12.0684H3.07153ZM3.42719 12.9271C3.19947 12.6993 3.07153 12.3905 3.07153 12.0684H2.07153C2.07153 12.6557 2.30482 13.2189 2.72008 13.6342L3.42719 12.9271ZM4.28582 13.2827C3.96377 13.2827 3.65491 13.1548 3.42719 12.9271L2.72008 13.6342C3.13534 14.0494 3.69856 14.2827 4.28582 14.2827V13.2827ZM4.43153 13.2827H4.28582V14.2827H4.43153V13.2827ZM5.48286 13.601C5.1716 13.3948 4.80686 13.2842 4.43353 13.2827L4.42954 14.2827C4.60784 14.2834 4.78205 14.3363 4.93071 14.4347L5.48286 13.601ZM6.18539 14.4429C6.03832 14.0997 5.79412 13.8071 5.48286 13.601L4.93071 14.4347C5.07938 14.5332 5.19601 14.6729 5.26625 14.8368L6.18539 14.4429ZM6.31552 15.5524C6.38375 15.1761 6.33769 14.7879 6.18325 14.438L5.26839 14.8417C5.34215 15.0089 5.36415 15.1943 5.33156 15.374L6.31552 15.5524ZM5.80039 16.5495C6.06786 16.2761 6.24728 15.9288 6.31552 15.5524L5.33156 15.374C5.29897 15.5538 5.21327 15.7196 5.08553 15.8502L5.80039 16.5495ZM5.74509 16.6048L5.79652 16.5534L5.0894 15.8463L5.03798 15.8977L5.74509 16.6048ZM5.48132 16.9991C5.54243 16.8517 5.63199 16.7178 5.74489 16.605L5.03818 15.8975C4.8323 16.1032 4.66898 16.3474 4.55755 16.6162L5.48132 16.9991ZM5.38876 17.4641C5.38876 17.3046 5.42021 17.1466 5.48132 16.9991L4.55755 16.6162C4.44611 16.885 4.38876 17.1732 4.38876 17.4641H5.38876ZM5.48132 17.9291C5.42021 17.7817 5.38876 17.6237 5.38876 17.4641H4.38876C4.38876 17.7551 4.44611 18.0433 4.55755 18.3121L5.48132 17.9291ZM5.74489 18.3233C5.63199 18.2105 5.54243 18.0766 5.48132 17.9291L4.55755 18.3121C4.66898 18.5809 4.8323 18.8251 5.03818 19.0308L5.74489 18.3233ZM6.13939 18.5872C5.99198 18.5261 5.85806 18.4365 5.74529 18.3236L5.03778 19.0304C5.24343 19.2362 5.48764 19.3996 5.75645 19.511L6.13939 18.5872ZM6.60439 18.6798C6.44481 18.6798 6.2868 18.6483 6.13939 18.5872L5.75645 19.511C6.02526 19.6224 6.3134 19.6798 6.60439 19.6798V18.6798ZM7.06939 18.5872C6.92198 18.6483 6.76397 18.6798 6.60439 18.6798V19.6798C6.89538 19.6798 7.18352 19.6224 7.45233 19.511L7.06939 18.5872ZM7.4635 18.3236C7.35072 18.4365 7.2168 18.5261 7.06939 18.5872L7.45233 19.511C7.72114 19.3996 7.96535 19.2362 8.171 19.0304L7.4635 18.3236ZM7.51512 18.272L7.46369 18.3235L8.1708 19.0306L8.22223 18.9791L7.51512 18.272ZM8.51611 17.753C8.13976 17.8213 7.79247 18.0007 7.51905 18.2681L8.21831 18.983C8.3489 18.8553 8.51477 18.7696 8.69452 18.737L8.51611 17.753ZM9.63056 17.8853C9.28063 17.7308 8.89246 17.6848 8.51611 17.753L8.69452 18.737C8.87427 18.7044 9.05967 18.7264 9.2268 18.8001L9.63056 17.8853ZM10.4975 18.5564C10.2741 18.244 9.96178 18.006 9.60127 17.8734L9.25609 18.812C9.42827 18.8753 9.57742 18.989 9.68415 19.1382L10.4975 18.5564ZM10.8543 19.6253C10.8453 19.2413 10.721 18.8689 10.4975 18.5564L9.68415 19.1382C9.79087 19.2874 9.85024 19.4653 9.85453 19.6487L10.8543 19.6253ZM10.8544 19.7141V19.637H9.85439V19.7141H10.8544ZM11.2101 20.5728C10.9823 20.3451 10.8544 20.0362 10.8544 19.7141H9.85439C9.85439 20.3014 10.0877 20.8646 10.5029 21.2799L11.2101 20.5728ZM12.0687 20.9284C11.7466 20.9284 11.4378 20.8005 11.2101 20.5728L10.5029 21.2799C10.9182 21.6951 11.4814 21.9284 12.0687 21.9284V20.9284ZM12.9273 20.5728C12.6996 20.8005 12.3907 20.9284 12.0687 20.9284V21.9284C12.6559 21.9284 13.2192 21.6951 13.6344 21.2799L12.9273 20.5728ZM13.283 19.7141C13.283 20.0362 13.155 20.3451 12.9273 20.5728L13.6344 21.2799C14.0497 20.8646 14.283 20.3014 14.283 19.7141H13.283ZM13.283 19.5684V19.7141H14.283V19.5684H13.283ZM13.6012 18.5171C13.3951 18.8284 13.2845 19.1931 13.283 19.5664L14.283 19.5704C14.2837 19.3921 14.3365 19.2179 14.435 19.0693L13.6012 18.5171ZM14.4431 17.8146C14.1 17.9616 13.8073 18.2058 13.6012 18.5171L14.435 19.0693C14.5334 18.9206 14.6732 18.804 14.8371 18.7337L14.4431 17.8146ZM15.5527 17.6844C15.1763 17.6162 14.7882 17.6623 14.4382 17.8167L14.842 18.7316C15.0091 18.6578 15.1945 18.6358 15.3743 18.6684L15.5527 17.6844ZM16.5497 18.1996C16.2763 17.9321 15.929 17.7527 15.5527 17.6845L15.3743 18.6684C15.554 18.701 15.7199 18.7867 15.8505 18.9144L16.5497 18.1996ZM16.6051 18.2549L16.5537 18.2035L15.8466 18.9106L15.898 18.962L16.6051 18.2549ZM16.9994 18.5186C16.852 18.4575 16.7181 18.368 16.6053 18.2551L15.8978 18.9618C16.1034 19.1677 16.3476 19.331 16.6165 19.4424L16.9994 18.5186ZM17.4644 18.6112C17.3048 18.6112 17.1468 18.5798 16.9994 18.5186L16.6165 19.4424C16.8853 19.5539 17.1734 19.6112 17.4644 19.6112V18.6112ZM17.9294 18.5186C17.782 18.5798 17.624 18.6112 17.4644 18.6112V19.6112C17.7554 19.6112 18.0435 19.5539 18.3123 19.4424L17.9294 18.5186ZM18.3235 18.2551C18.2107 18.368 18.0768 18.4575 17.9294 18.5186L18.3123 19.4424C18.5811 19.331 18.8254 19.1677 19.031 18.9618L18.3235 18.2551ZM18.5875 17.8606C18.5264 18.008 18.4368 18.1419 18.3239 18.2547L19.0306 18.9622C19.2365 18.7565 19.3998 18.5123 19.5112 18.2435L18.5875 17.8606ZM18.68 17.3956C18.68 17.5552 18.6486 17.7132 18.5875 17.8606L19.5112 18.2435C19.6227 17.9747 19.68 17.6866 19.68 17.3956H18.68ZM18.5875 16.9306C18.6486 17.078 18.68 17.236 18.68 17.3956H19.68C19.68 17.1046 19.6227 16.8165 19.5112 16.5476L18.5875 16.9306ZM18.3239 16.5365C18.4368 16.6492 18.5264 16.7832 18.5875 16.9306L19.5112 16.5476C19.3998 16.2788 19.2365 16.0346 19.0306 15.829L18.3239 16.5365ZM18.2723 16.4848L18.3237 16.5363L19.0308 15.8292L18.9794 15.7777L18.2723 16.4848ZM17.7533 15.4839C17.8215 15.8602 18.0009 16.2075 18.2684 16.4809L18.9833 15.7817C18.8555 15.6511 18.7698 15.4852 18.7372 15.3054L17.7533 15.4839ZM12.0001 15.0713C13.6964 15.0713 15.0715 13.6962 15.0715 11.9999H14.0715C14.0715 13.1439 13.1441 14.0713 12.0001 14.0713V15.0713ZM8.92868 11.9999C8.92868 13.6962 10.3038 15.0713 12.0001 15.0713V14.0713C10.8561 14.0713 9.92868 13.1439 9.92868 11.9999H8.92868ZM12.0001 8.92843C10.3038 8.92843 8.92868 10.3036 8.92868 11.9999H9.92868C9.92868 10.8558 10.8561 9.92843 12.0001 9.92843V8.92843ZM15.0715 11.9999C15.0715 10.3036 13.6964 8.92843 12.0001 8.92843V9.92843C13.1441 9.92843 14.0715 10.8558 14.0715 11.9999H15.0715Z" fill="#2C3238"/>
</svg>
