<svg width="24" height="24" viewBox="0 0 24 24" fill="none" xmlns="http://www.w3.org/2000/svg">
<path d="M15.6326 8.42571C16.1108 8.90335 16.4901 9.47054 16.7489 10.0949C17.0077 10.7192 17.1409 11.3884 17.1409 12.0643C17.1409 12.7401 17.0077 13.4094 16.7489 14.0337C16.4901 14.658 16.1108 15.2252 15.6326 15.7029M8.36402 15.6943C7.88586 15.2167 7.50653 14.6495 7.24772 14.0251C6.98891 13.4008 6.85569 12.7316 6.85569 12.0557C6.85569 11.3799 6.98891 10.7106 7.24772 10.0863C7.50653 9.46197 7.88586 8.89478 8.36402 8.41714M18.0583 6C19.6652 7.60738 20.5679 9.78716 20.5679 12.06C20.5679 14.3328 19.6652 16.5126 18.0583 18.12M5.93831 18.12C4.33141 16.5126 3.42871 14.3328 3.42871 12.06C3.42871 9.78716 4.33141 7.60738 5.93831 6M13.7126 12.06C13.7126 13.0068 12.9451 13.7743 11.9983 13.7743C11.0515 13.7743 10.284 13.0068 10.284 12.06C10.284 11.1132 11.0515 10.3457 11.9983 10.3457C12.9451 10.3457 13.7126 11.1132 13.7126 12.06Z" stroke="#56606B" stroke-linecap="round" stroke-linejoin="round"/>
</svg>
