<svg width="24" height="24" viewBox="0 0 24 24" fill="none" xmlns="http://www.w3.org/2000/svg">
<path d="M16.7985 18V16.8571C16.7985 16.2509 16.5502 15.6695 16.1082 15.2409C15.6661 14.8122 15.0666 14.5714 14.4414 14.5714H9.72712C9.10197 14.5714 8.50242 14.8122 8.06037 15.2409C7.61832 15.6695 7.36998 16.2509 7.36998 16.8571V18M3.94141 8.87141L12.0843 2.57141L20.2271 8.87141V18.7714C20.2271 19.2488 20.0365 19.7066 19.6971 20.0442C19.3578 20.3818 18.8975 20.5714 18.4176 20.5714H5.75093C5.27101 20.5714 4.81075 20.3818 4.4714 20.0442C4.13205 19.7066 3.94141 19.2488 3.94141 18.7714V8.87141ZM14.4414 9.99998C14.4414 11.2623 13.3861 12.2857 12.0843 12.2857C10.7824 12.2857 9.72712 11.2623 9.72712 9.99998C9.72712 8.73762 10.7824 7.71427 12.0843 7.71427C13.3861 7.71427 14.4414 8.73762 14.4414 9.99998Z" stroke="#70747D" stroke-linecap="round" stroke-linejoin="round"/>
</svg>
