<svg width="24" height="24" viewBox="0 0 24 24" fill="none" xmlns="http://www.w3.org/2000/svg">
<path d="M19.9156 21.353L17.7888 19.2262M9.16982 17.5621H6.94345C6.39226 17.5621 5.7998 17.2149 5.7998 16.4638V5.59288C5.7998 4.95968 6.26971 4.28564 6.94345 4.28564H12.1775M12.1775 4.28564L16.4415 8.63496M12.1775 4.28564V8.63496H16.4415M16.4415 8.63496V10.7605M18.9378 16.4638C18.9378 18.624 17.1866 20.3752 15.0264 20.3752C12.8662 20.3752 11.115 18.624 11.115 16.4638C11.115 14.3036 12.8662 12.5524 15.0264 12.5524C17.1866 12.5524 18.9378 14.3036 18.9378 16.4638Z" stroke="#56606B" stroke-linecap="round" stroke-linejoin="round"/>
</svg>
