<svg width="24" height="24" viewBox="0 0 24 24" fill="none" xmlns="http://www.w3.org/2000/svg">
<path d="M20.5719 4.91759C20.5719 5.82558 17.9569 6.55197 14.7244 6.55197C11.492 6.55197 8.87695 5.82558 8.87695 4.91759C8.87695 4.0096 11.492 3.2832 14.7244 3.2832C17.9569 3.2832 20.5719 4.0096 20.5719 4.91759Z" stroke="#F5F6FA" stroke-miterlimit="10" stroke-linecap="round"/>
<path d="M20.5714 7.82312C20.5714 8.73111 17.9564 9.4575 14.7239 9.4575C14.1065 9.4575 13.5254 9.42118 12.9443 9.38486C12.8716 9.38486 9.38495 8.94903 9.34863 8.91271" stroke="#F5F6FA" stroke-miterlimit="10" stroke-linecap="round"/>
<path d="M20.5715 10.9832C20.5715 11.8548 18.1018 12.5812 15.0146 12.6175" stroke="#F5F6FA" stroke-miterlimit="10" stroke-linecap="round"/>
<path d="M20.5712 14.1427C20.5712 15.0144 18.1378 15.7044 15.0869 15.7771" stroke="#F5F6FA" stroke-miterlimit="10" stroke-linecap="round"/>
<path d="M8.87695 5.42603V9.13063" stroke="#F5F6FA" stroke-miterlimit="10" stroke-linecap="round"/>
<path d="M20.5713 5.42603V14.1064" stroke="#F5F6FA" stroke-miterlimit="10" stroke-linecap="round"/>
<path d="M14.942 14.9419C14.942 18.1381 12.3633 20.7167 9.16721 20.7167C6.0074 20.7167 3.42871 18.1381 3.42871 14.9419C3.42871 11.7458 6.0074 9.16711 9.20353 9.16711C12.3633 9.20343 14.942 11.7821 14.942 14.9419Z" stroke="#F5F6FA" stroke-miterlimit="10" stroke-linecap="round"/>
<mask id="path-8-inside-1_1479_9412" fill="white">
<path d="M8.87624 18.6828V17.7748C8.36776 17.7748 7.82297 17.5932 7.49609 17.3753L7.71401 16.7578C8.04089 16.9757 8.51304 17.1573 9.02152 17.1573C9.67527 17.1573 10.1111 16.7941 10.1111 16.2857C10.1111 15.7772 9.74791 15.4866 9.09416 15.1961C8.14985 14.8329 7.60505 14.4334 7.60505 13.6343C7.60505 12.8716 8.14985 12.3268 8.9852 12.1815V11.2736H9.52999V12.1452C10.0748 12.1452 10.438 12.2905 10.6922 12.4721L10.4743 13.0532C10.2927 12.9443 9.92951 12.7627 9.34839 12.7627C8.65832 12.7627 8.40408 13.1622 8.40408 13.5254C8.40408 13.9975 8.73096 14.2154 9.52999 14.5423C10.4743 14.9418 10.9465 15.3777 10.9465 16.213C10.9465 16.9394 10.438 17.5932 9.52999 17.7384V18.6828H8.87624Z"/>
</mask>
<path d="M8.87624 18.6828H7.87624V19.6828H8.87624V18.6828ZM8.87624 17.7748H9.87624V16.7748H8.87624V17.7748ZM7.49609 17.3753L6.5531 17.0424L6.29424 17.7759L6.94139 18.2073L7.49609 17.3753ZM7.71401 16.7578L8.26871 15.9258L7.19893 15.2126L6.77102 16.425L7.71401 16.7578ZM9.09416 15.1961L9.5003 14.2823L9.47697 14.2719L9.45314 14.2627L9.09416 15.1961ZM8.9852 12.1815L9.15654 13.1668L9.9852 13.0226V12.1815H8.9852ZM8.9852 11.2736V10.2736H7.9852V11.2736H8.9852ZM9.52999 11.2736H10.53V10.2736H9.52999V11.2736ZM9.52999 12.1452H8.52999V13.1452H9.52999V12.1452ZM10.6922 12.4721L11.6285 12.8232L11.8981 12.1045L11.2735 11.6584L10.6922 12.4721ZM10.4743 13.0532L9.95981 13.9107L10.9891 14.5283L11.4106 13.4043L10.4743 13.0532ZM9.52999 14.5423L9.91966 13.6213L9.90862 13.6168L9.52999 14.5423ZM9.52999 17.7384L9.372 16.751L8.52999 16.8857V17.7384H9.52999ZM9.52999 18.6828V19.6828H10.53V18.6828H9.52999ZM9.87624 18.6828V17.7748H7.87624V18.6828H9.87624ZM8.87624 16.7748C8.7355 16.7748 8.57016 16.7486 8.40707 16.6994C8.24126 16.6493 8.11698 16.5873 8.05079 16.5432L6.94139 18.2073C7.43348 18.5354 8.17147 18.7748 8.87624 18.7748V16.7748ZM8.43908 17.7081L8.657 17.0906L6.77102 16.425L6.5531 17.0424L8.43908 17.7081ZM7.15931 17.5899C7.62451 17.9 8.28658 18.1573 9.02152 18.1573V16.1573C8.7395 16.1573 8.45727 16.0515 8.26871 15.9258L7.15931 17.5899ZM9.02152 18.1573C9.5271 18.1573 10.0364 18.0167 10.4407 17.6894C10.8595 17.3504 11.1111 16.8498 11.1111 16.2857H9.11111C9.11111 16.2672 9.11573 16.2358 9.13263 16.2008C9.14925 16.1665 9.16987 16.145 9.18227 16.1349C9.20517 16.1164 9.16969 16.1573 9.02152 16.1573V18.1573ZM11.1111 16.2857C11.1111 15.7489 10.9023 15.2995 10.5549 14.952C10.2482 14.6453 9.85506 14.4399 9.5003 14.2823L8.68802 16.1099C8.8288 16.1725 8.93372 16.2262 9.0121 16.2735C9.09074 16.321 9.12724 16.3528 9.14068 16.3663C9.15108 16.3767 9.13814 16.3664 9.125 16.3357C9.11126 16.3036 9.11111 16.2816 9.11111 16.2857H11.1111ZM9.45314 14.2627C9.01044 14.0925 8.79426 13.9597 8.68962 13.8588C8.6473 13.818 8.63282 13.7911 8.62581 13.7745C8.6186 13.7575 8.60505 13.7176 8.60505 13.6343H6.60505C6.60505 14.3035 6.8503 14.8635 7.30135 15.2985C7.7052 15.6879 8.23356 15.9365 8.73518 16.1294L9.45314 14.2627ZM8.60505 13.6343C8.60505 13.5067 8.64443 13.43 8.70195 13.3703C8.76873 13.301 8.90704 13.2102 9.15654 13.1668L8.81386 11.1963C7.62009 11.4039 6.60505 12.2725 6.60505 13.6343H8.60505ZM9.9852 12.1815V11.2736H7.9852V12.1815H9.9852ZM8.9852 12.2736H9.52999V10.2736H8.9852V12.2736ZM8.52999 11.2736V12.1452H10.53V11.2736H8.52999ZM9.52999 13.1452C9.88052 13.1452 10.0375 13.2334 10.111 13.2858L11.2735 11.6584C10.8385 11.3477 10.2691 11.1452 9.52999 11.1452V13.1452ZM9.75589 12.121L9.53797 12.7021L11.4106 13.4043L11.6285 12.8232L9.75589 12.121ZM10.9888 12.1957C10.6984 12.0215 10.1583 11.7627 9.34839 11.7627V13.7627C9.7007 13.7627 9.88703 13.867 9.95981 13.9107L10.9888 12.1957ZM9.34839 11.7627C8.80745 11.7627 8.29909 11.9236 7.92132 12.2899C7.54948 12.6505 7.40408 13.1146 7.40408 13.5254H9.40408C9.40408 13.573 9.38581 13.6557 9.31361 13.7257C9.27975 13.7586 9.25129 13.7706 9.24578 13.7726C9.24248 13.7738 9.27169 13.7627 9.34839 13.7627V11.7627ZM7.40408 13.5254C7.40408 14.0629 7.62082 14.5112 8.01975 14.8503C8.33805 15.1208 8.76095 15.3082 9.15136 15.4679L9.90862 13.6168C9.71906 13.5392 9.58004 13.4772 9.47544 13.4232C9.36923 13.3684 9.32626 13.3359 9.31505 13.3264C9.3099 13.322 9.34352 13.35 9.37297 13.4128C9.38671 13.4421 9.39513 13.4698 9.39975 13.4925C9.40419 13.5144 9.40408 13.5267 9.40408 13.5254H7.40408ZM9.14035 15.4633C9.56863 15.6445 9.75974 15.7836 9.84777 15.8818C9.89981 15.9398 9.94646 16.0108 9.94646 16.213H11.9465C11.9465 15.5799 11.757 15.0153 11.3369 14.5467C10.9528 14.1182 10.4357 13.8397 9.91963 13.6214L9.14035 15.4633ZM9.94646 16.213C9.94646 16.3388 9.90422 16.4468 9.82925 16.5316C9.7559 16.6147 9.61853 16.7116 9.372 16.751L9.68798 18.7259C11.0506 18.5079 11.9465 17.461 11.9465 16.213H9.94646ZM8.52999 17.7384V18.6828H10.53V17.7384H8.52999ZM9.52999 17.6828H8.87624V19.6828H9.52999V17.6828Z" fill="#F5F6FA" mask="url(#path-8-inside-1_1479_9412)"/>
</svg>
