<svg width="24" height="24" viewBox="0 0 24 24" fill="none" xmlns="http://www.w3.org/2000/svg">
<path d="M13.714 3.42859H6.85686C6.40221 3.42859 5.96617 3.6092 5.64468 3.93069C5.32319 4.25218 5.14258 4.68822 5.14258 5.14287V18.8572C5.14258 19.3118 5.32319 19.7479 5.64468 20.0693C5.96617 20.3908 6.40221 20.5714 6.85686 20.5714H17.1426C17.5972 20.5714 18.0333 20.3908 18.3548 20.0693C18.6763 19.7479 18.8569 19.3118 18.8569 18.8572V8.57145M13.714 3.42859L18.8569 8.57145M13.714 3.42859V8.57145H18.8569M15.4283 12.8572H8.57115M15.4283 16.2857H8.57115M10.2854 9.42859H8.57115" stroke="#F5F6FA" stroke-linecap="round" stroke-linejoin="round"/>
</svg>
