<svg width="18" height="18" viewBox="0 0 18 18" fill="none" xmlns="http://www.w3.org/2000/svg">
<mask id="path-1-inside-1" fill="white">
<path d="M12.2143 2.57144H5.78571C5.07563 2.57144 4.5 3.14708 4.5 3.85716V14.1429C4.5 14.853 5.07563 15.4286 5.78571 15.4286H12.2143C12.9244 15.4286 13.5 14.853 13.5 14.1429V3.85716C13.5 3.14708 12.9244 2.57144 12.2143 2.57144Z"/>
</mask>
<path d="M5.78571 3.57144H12.2143V1.57144H5.78571V3.57144ZM12.2143 3.57144C12.3721 3.57144 12.5 3.69936 12.5 3.85716H14.5C14.5 2.59479 13.4767 1.57144 12.2143 1.57144V3.57144ZM12.5 3.85716V14.1429H14.5V3.85716H12.5ZM12.5 14.1429C12.5 14.3007 12.3721 14.4286 12.2143 14.4286V16.4286C13.4767 16.4286 14.5 15.4052 14.5 14.1429H12.5ZM12.2143 14.4286H5.78571V16.4286H12.2143V14.4286ZM5.78571 14.4286C5.62792 14.4286 5.5 14.3007 5.5 14.1429H3.5C3.5 15.4052 4.52335 16.4286 5.78571 16.4286V14.4286ZM5.5 14.1429V3.85716H3.5V14.1429H5.5ZM5.5 3.85716C5.5 3.69936 5.62792 3.57144 5.78571 3.57144V1.57144C4.52335 1.57144 3.5 2.59479 3.5 3.85716H5.5Z" fill="white" mask="url(#path-1-inside-1)"/>
<path d="M9.64314 12.8572C9.64314 13.2122 9.35532 13.5 9.00028 13.5C8.64524 13.5 8.35742 13.2122 8.35742 12.8572C8.35742 12.5021 8.64524 12.2143 9.00028 12.2143C9.35532 12.2143 9.64314 12.5021 9.64314 12.8572Z" fill="white"/>
</svg>
