<svg width="24" height="24" viewBox="0 0 24 24" fill="none" xmlns="http://www.w3.org/2000/svg">
<mask id="path-1-inside-1_1479_9387" fill="white">
<path d="M6.38585 6.09425L3.42871 12V17.1428C3.42871 17.5975 3.60932 18.0335 3.93081 18.355C4.2523 18.6765 4.68834 18.8571 5.143 18.8571H18.8573C19.3119 18.8571 19.748 18.6765 20.0695 18.355C20.391 18.0335 20.5716 17.5975 20.5716 17.1428V12L17.6144 6.09425C17.4725 5.80864 17.2537 5.56828 16.9827 5.4002C16.7116 5.23213 16.3991 5.14299 16.0801 5.14282H7.92014C7.60121 5.14299 7.28865 5.23213 7.01761 5.4002C6.74656 5.56828 6.52778 5.80864 6.38585 6.09425Z"/>
</mask>
<path d="M20.5716 12.5C20.8477 12.5 21.0716 12.2761 21.0716 12C21.0716 11.7238 20.8477 11.5 20.5716 11.5V12.5ZM3.42871 11.5C3.15257 11.5 2.92871 11.7238 2.92871 12C2.92871 12.2761 3.15257 12.5 3.42871 12.5V11.5ZM20.5716 11.5H3.42871V12.5H20.5716V11.5ZM20.5716 12H21.5716C21.5716 11.8445 21.5353 11.6912 21.4657 11.5522L20.5716 12ZM3.42871 12L2.53454 11.5522C2.46495 11.6912 2.42871 11.8445 2.42871 12H3.42871ZM6.38585 6.09425L7.28003 6.54199L7.28138 6.53925L6.38585 6.09425ZM3.42871 17.1428H2.42871H3.42871ZM17.6144 6.09425L16.7189 6.53925L16.7203 6.54198L17.6144 6.09425ZM16.0801 5.14282L16.0807 4.14282H16.0801V5.14282ZM7.92014 5.14282V4.14282L7.91961 4.14282L7.92014 5.14282ZM5.49169 5.64652L2.53454 11.5522L4.32288 12.4477L7.28002 6.54198L5.49169 5.64652ZM2.42871 12V17.1428H4.42871V12H2.42871ZM2.42871 17.1428C2.42871 17.8627 2.71468 18.5531 3.22371 19.0621L4.63792 17.6479C4.50397 17.5139 4.42871 17.3323 4.42871 17.1428H2.42871ZM3.22371 19.0621C3.73273 19.5711 4.42312 19.8571 5.143 19.8571V17.8571C4.95356 17.8571 4.77188 17.7819 4.63792 17.6479L3.22371 19.0621ZM5.143 19.8571H18.8573V17.8571H5.143V19.8571ZM18.8573 19.8571C19.5772 19.8571 20.2675 19.5711 20.7766 19.0621L19.3624 17.6479C19.2284 17.7819 19.0467 17.8571 18.8573 17.8571V19.8571ZM20.7766 19.0621C21.2856 18.5531 21.5716 17.8627 21.5716 17.1428H19.5716C19.5716 17.3323 19.4963 17.5139 19.3624 17.6479L20.7766 19.0621ZM21.5716 17.1428V12H19.5716V17.1428H21.5716ZM21.4657 11.5522L18.5086 5.64652L16.7203 6.54198L19.6774 12.4477L21.4657 11.5522ZM18.51 5.64925C18.2852 5.19704 17.9388 4.81647 17.5097 4.55034L16.4557 6.25006C16.5686 6.3201 16.6598 6.42024 16.7189 6.53925L18.51 5.64925ZM17.5097 4.55034C17.0805 4.28422 16.5856 4.14309 16.0807 4.14282L16.0796 6.14282C16.2125 6.14289 16.3427 6.18003 16.4557 6.25006L17.5097 4.55034ZM16.0801 4.14282H7.92014V6.14282H16.0801V4.14282ZM7.91961 4.14282C7.41464 4.14309 6.91975 4.28422 6.4906 4.55034L7.54461 6.25006C7.65755 6.18003 7.78778 6.14289 7.92067 6.14282L7.91961 4.14282ZM6.4906 4.55034C6.06144 4.81647 5.71503 5.19703 5.49032 5.64925L7.28138 6.53925C7.34052 6.42025 7.43168 6.3201 7.54461 6.25006L6.4906 4.55034Z" fill="#F5F6FA" mask="url(#path-1-inside-1_1479_9387)"/>
<mask id="path-3-inside-2_1479_9387" fill="white">
<path d="M7.38421 15.0799C7.38421 15.5533 7.00045 15.9371 6.52706 15.9371C6.05368 15.9371 5.66992 15.5533 5.66992 15.0799C5.66992 14.6065 6.05368 14.2228 6.52706 14.2228C7.00045 14.2228 7.38421 14.6065 7.38421 15.0799Z"/>
</mask>
<path d="M7.38421 15.0799C7.38421 15.5533 7.00045 15.9371 6.52706 15.9371C6.05368 15.9371 5.66992 15.5533 5.66992 15.0799C5.66992 14.6065 6.05368 14.2228 6.52706 14.2228C7.00045 14.2228 7.38421 14.6065 7.38421 15.0799Z" fill="#555555"/>
<path d="M6.38421 15.0799C6.38421 15.001 6.44817 14.9371 6.52706 14.9371V16.9371C7.55274 16.9371 8.38421 16.1056 8.38421 15.0799H6.38421ZM6.52706 14.9371C6.60596 14.9371 6.66992 15.001 6.66992 15.0799H4.66992C4.66992 16.1056 5.50139 16.9371 6.52706 16.9371V14.9371ZM6.66992 15.0799C6.66992 15.1588 6.60596 15.2228 6.52706 15.2228V13.2228C5.50139 13.2228 4.66992 14.0542 4.66992 15.0799H6.66992ZM6.52706 15.2228C6.44817 15.2228 6.38421 15.1588 6.38421 15.0799H8.38421C8.38421 14.0542 7.55274 13.2228 6.52706 13.2228V15.2228Z" fill="#F5F6FA" mask="url(#path-3-inside-2_1479_9387)"/>
<mask id="path-5-inside-3_1479_9387" fill="white">
<path d="M9.9555 15.0799C9.9555 15.5533 9.57174 15.9371 9.09835 15.9371C8.62497 15.9371 8.24121 15.5533 8.24121 15.0799C8.24121 14.6065 8.62497 14.2228 9.09835 14.2228C9.57174 14.2228 9.9555 14.6065 9.9555 15.0799Z"/>
</mask>
<path d="M9.9555 15.0799C9.9555 15.5533 9.57174 15.9371 9.09835 15.9371C8.62497 15.9371 8.24121 15.5533 8.24121 15.0799C8.24121 14.6065 8.62497 14.2228 9.09835 14.2228C9.57174 14.2228 9.9555 14.6065 9.9555 15.0799Z" fill="#555555"/>
<path d="M8.9555 15.0799C8.9555 15.001 9.01946 14.9371 9.09835 14.9371V16.9371C10.124 16.9371 10.9555 16.1056 10.9555 15.0799H8.9555ZM9.09835 14.9371C9.17725 14.9371 9.24121 15.001 9.24121 15.0799H7.24121C7.24121 16.1056 8.07268 16.9371 9.09835 16.9371V14.9371ZM9.24121 15.0799C9.24121 15.1588 9.17725 15.2228 9.09835 15.2228V13.2228C8.07268 13.2228 7.24121 14.0542 7.24121 15.0799H9.24121ZM9.09835 15.2228C9.01946 15.2228 8.9555 15.1588 8.9555 15.0799H10.9555C10.9555 14.0542 10.124 13.2228 9.09835 13.2228V15.2228Z" fill="#F5F6FA" mask="url(#path-5-inside-3_1479_9387)"/>
</svg>
