<svg width="22" height="22" viewBox="0 0 22 22" fill="none" xmlns="http://www.w3.org/2000/svg">
<path d="M7.48 3.07983C6.6 2.99217 5.98469 3.69514 5.94 3.69514L2.16906 9.3017C1.82531 9.4942 1.56234 9.73999 1.36984 10.0322C0.85078 10.8262 0.879999 11.7922 0.879999 12.7598C0.879999 14.922 2.56437 16.7198 4.66297 16.7198C6.75641 16.7198 8.40297 15.0286 9.2864 13.1689C9.41875 12.8905 9.52187 12.6069 9.59234 12.3198H12.4077C12.4781 12.6069 12.5812 12.8905 12.7136 13.1689C13.597 15.0286 15.2436 16.7198 17.337 16.7198C19.4356 16.7198 21.12 14.922 21.12 12.7598C21.12 11.7922 21.1492 10.8262 20.6302 10.0322C20.4514 9.76061 20.2073 9.53202 19.898 9.34467L16.103 3.73983L16.06 3.69514C16.0153 3.69514 15.4447 2.99217 14.52 3.07983C13.7723 3.16749 13.1123 3.73983 12.54 4.75217L12.32 5.19217L13.1123 5.67686L13.3323 5.27983C13.7277 4.53217 14.1677 4.13686 14.6077 4.09217C15.003 4.04749 15.2677 4.31217 15.357 4.39983L18.3837 8.86686C18.0658 8.82389 17.722 8.79983 17.337 8.79983C17.2752 8.79983 17.2202 8.80327 17.16 8.80499V8.79983H4.84V8.80499C4.77984 8.80327 4.72484 8.79983 4.66297 8.79983C4.27109 8.79983 3.91875 8.82561 3.59562 8.86858L6.64297 4.35514C6.73234 4.26749 6.99703 4.0028 7.39234 4.04749C7.78766 4.09217 8.22765 4.53217 8.66765 5.23686L8.88765 5.63217L9.68 5.14749L9.46 4.75217C8.84469 3.73983 8.18469 3.16749 7.48 3.07983ZM4.66297 9.67983C4.84516 9.67983 5.00672 9.68842 5.17344 9.69358C4.9775 9.7417 4.84 9.91874 4.84 10.1198C4.84 10.3622 5.03766 10.5598 5.28 10.5598C5.52234 10.5598 5.72 10.3622 5.72 10.1198C5.72 9.92733 5.59281 9.75545 5.40891 9.70045C6.30437 9.74686 6.97812 9.88092 7.48516 10.0614C7.48172 10.0803 7.48 10.1009 7.48 10.1198C7.48 10.3622 7.67765 10.5598 7.92 10.5598C8.03344 10.5598 8.14344 10.5151 8.22422 10.4361C8.34109 10.5203 8.4425 10.608 8.5164 10.6973C8.73812 10.9655 8.82406 11.2542 8.81547 11.6065C8.81031 11.8558 8.74844 12.1342 8.64187 12.423C8.56281 12.3576 8.46312 12.3198 8.36 12.3198C8.11765 12.3198 7.92 12.5175 7.92 12.7598C7.92 12.9712 8.06953 13.1517 8.2775 13.193C7.64156 14.3376 6.70484 15.2984 5.62547 15.6697C5.68734 15.594 5.72 15.4978 5.72 15.3998C5.72 15.1575 5.52234 14.9598 5.28 14.9598C5.03766 14.9598 4.84 15.1575 4.84 15.3998C4.84 15.5734 4.94312 15.7315 5.10125 15.8003C4.95687 15.8244 4.8125 15.8398 4.66297 15.8398C4.07859 15.8398 3.53203 15.6542 3.07484 15.3362C3.04391 15.1197 2.85828 14.9598 2.64 14.9598C2.63828 14.9598 2.63484 14.9598 2.63312 14.9598C2.09516 14.4012 1.76 13.6244 1.76 12.7598C1.76 11.7922 1.78922 10.9981 2.10719 10.5151C2.14844 10.4498 2.19828 10.3897 2.25328 10.3295C2.25328 10.3295 2.25328 10.3295 2.255 10.3312C2.33062 10.4722 2.47844 10.5598 2.64 10.5598C2.88234 10.5598 3.08 10.3622 3.08 10.1198C3.08 10.0356 3.05594 9.95483 3.01125 9.88436C3.40141 9.75545 3.92734 9.67983 4.66297 9.67983ZM8.68312 9.67983H13.3169C13.1209 9.81733 12.9473 9.96686 12.8064 10.1353C12.4884 10.5203 12.3406 10.9792 12.3148 11.4398H9.68515C9.65937 10.9792 9.51156 10.5203 9.19359 10.1353C9.05266 9.96686 8.87906 9.81733 8.68312 9.67983ZM17.337 9.67983C18.0727 9.67983 18.5969 9.75717 18.9887 9.88436C18.9441 9.95483 18.92 10.0356 18.92 10.1198C18.92 10.3622 19.1177 10.5598 19.36 10.5598C19.5216 10.5598 19.6694 10.4722 19.7467 10.3295C19.8017 10.3897 19.8516 10.4498 19.8945 10.5151C20.2108 10.9981 20.24 11.7922 20.24 12.7598C20.24 13.6244 19.9048 14.4012 19.3669 14.9598C19.3652 14.9598 19.3617 14.9598 19.36 14.9598C19.1417 14.9598 18.9561 15.1197 18.9252 15.3362C18.4662 15.6542 17.9214 15.8398 17.337 15.8398C17.1892 15.8398 17.0431 15.8244 16.8987 15.8003C17.0569 15.7298 17.16 15.5734 17.16 15.3998C17.16 15.1575 16.9623 14.9598 16.72 14.9598C16.4777 14.9598 16.28 15.1575 16.28 15.3998C16.28 15.4978 16.3127 15.594 16.3745 15.6697C15.2952 15.2984 14.3584 14.3376 13.7225 13.193C13.9305 13.1517 14.08 12.9712 14.08 12.7598C14.08 12.5175 13.8823 12.3198 13.64 12.3198C13.5369 12.3198 13.4355 12.3559 13.3564 12.423C13.2516 12.1325 13.1897 11.854 13.1845 11.6065C13.1759 11.2542 13.2619 10.9655 13.4836 10.6973C13.5231 10.6509 13.573 10.6045 13.6228 10.5598C13.628 10.5598 13.6348 10.5598 13.64 10.5598C13.8291 10.5598 13.9958 10.4395 14.0559 10.2608C14.5802 9.98061 15.3897 9.76233 16.5894 9.70045C16.4055 9.75717 16.28 9.92733 16.28 10.1198C16.28 10.3622 16.4777 10.5598 16.72 10.5598C16.9623 10.5598 17.16 10.3622 17.16 10.1198C17.16 9.91874 17.0225 9.7417 16.8266 9.69358C16.9933 9.68842 17.1548 9.67983 17.337 9.67983ZM3.96 10.9998C3.71766 10.9998 3.52 11.1975 3.52 11.4398C3.52 11.6822 3.71766 11.8798 3.96 11.8798C4.20234 11.8798 4.4 11.6822 4.4 11.4398C4.4 11.1975 4.20234 10.9998 3.96 10.9998ZM6.6 10.9998C6.35766 10.9998 6.16 11.1975 6.16 11.4398C6.16 11.6822 6.35766 11.8798 6.6 11.8798C6.84234 11.8798 7.04 11.6822 7.04 11.4398C7.04 11.1975 6.84234 10.9998 6.6 10.9998ZM15.4 10.9998C15.1577 10.9998 14.96 11.1975 14.96 11.4398C14.96 11.6822 15.1577 11.8798 15.4 11.8798C15.6423 11.8798 15.84 11.6822 15.84 11.4398C15.84 11.1975 15.6423 10.9998 15.4 10.9998ZM18.04 10.9998C17.7977 10.9998 17.6 11.1975 17.6 11.4398C17.6 11.6822 17.7977 11.8798 18.04 11.8798C18.2823 11.8798 18.48 11.6822 18.48 11.4398C18.48 11.1975 18.2823 10.9998 18.04 10.9998ZM2.64 12.3198C2.39766 12.3198 2.2 12.5175 2.2 12.7598C2.2 13.0022 2.39766 13.1998 2.64 13.1998C2.88234 13.1998 3.08 13.0022 3.08 12.7598C3.08 12.5175 2.88234 12.3198 2.64 12.3198ZM5.28 12.3198C5.03766 12.3198 4.84 12.5175 4.84 12.7598C4.84 13.0022 5.03766 13.1998 5.28 13.1998C5.52234 13.1998 5.72 13.0022 5.72 12.7598C5.72 12.5175 5.52234 12.3198 5.28 12.3198ZM16.72 12.3198C16.4777 12.3198 16.28 12.5175 16.28 12.7598C16.28 13.0022 16.4777 13.1998 16.72 13.1998C16.9623 13.1998 17.16 13.0022 17.16 12.7598C17.16 12.5175 16.9623 12.3198 16.72 12.3198ZM19.36 12.3198C19.1177 12.3198 18.92 12.5175 18.92 12.7598C18.92 13.0022 19.1177 13.1998 19.36 13.1998C19.6023 13.1998 19.8 13.0022 19.8 12.7598C19.8 12.5175 19.6023 12.3198 19.36 12.3198ZM3.96 13.6398C3.71766 13.6398 3.52 13.8375 3.52 14.0798C3.52 14.3222 3.71766 14.5198 3.96 14.5198C4.20234 14.5198 4.4 14.3222 4.4 14.0798C4.4 13.8375 4.20234 13.6398 3.96 13.6398ZM6.6 13.6398C6.35766 13.6398 6.16 13.8375 6.16 14.0798C6.16 14.3222 6.35766 14.5198 6.6 14.5198C6.84234 14.5198 7.04 14.3222 7.04 14.0798C7.04 13.8375 6.84234 13.6398 6.6 13.6398ZM15.4 13.6398C15.1577 13.6398 14.96 13.8375 14.96 14.0798C14.96 14.3222 15.1577 14.5198 15.4 14.5198C15.6423 14.5198 15.84 14.3222 15.84 14.0798C15.84 13.8375 15.6423 13.6398 15.4 13.6398ZM18.04 13.6398C17.7977 13.6398 17.6 13.8375 17.6 14.0798C17.6 14.3222 17.7977 14.5198 18.04 14.5198C18.2823 14.5198 18.48 14.3222 18.48 14.0798C18.48 13.8375 18.2823 13.6398 18.04 13.6398Z" fill="#555555"/>
</svg>
