<svg width="24" height="24" viewBox="0 0 24 24" fill="none" xmlns="http://www.w3.org/2000/svg">
<path d="M19.9156 21.3531L17.7888 19.2263M9.16982 17.5623H6.94345C6.39226 17.5623 5.7998 17.215 5.7998 16.4639V5.593C5.7998 4.9598 6.2697 4.28577 6.94345 4.28577H12.1775M12.1775 4.28577L16.4415 8.63508M12.1775 4.28577V8.63508H16.4415M16.4415 8.63508V10.7606M18.9378 16.4639C18.9378 18.6241 17.1866 20.3753 15.0264 20.3753C12.8662 20.3753 11.115 18.6241 11.115 16.4639C11.115 14.3037 12.8662 12.5525 15.0264 12.5525C17.1866 12.5525 18.9378 14.3037 18.9378 16.4639Z" stroke="#CFA6FF" stroke-linecap="round" stroke-linejoin="round"/>
<path d="M15.5 10C11.9101 10 9 12.9101 9 16.5C9 16.8936 9.03498 17.279 9.102 17.6533H6V4.5H12.5V8.5H16.5V10.0764C16.174 10.0261 15.8401 10 15.5 10Z" fill="#CFA6FF"/>
</svg>
