<svg width="24" height="24" viewBox="0 0 24 24" fill="none" xmlns="http://www.w3.org/2000/svg">
<path d="M21 17H3C3.71608 17 4.40284 16.7261 4.90919 16.2385C5.41554 15.7509 5.7 15.0896 5.7 14.4V10.0667C5.7 8.45769 6.36375 6.91461 7.54523 5.77689C8.72671 4.63916 10.3291 4 12 4C13.6709 4 15.2733 4.63916 16.4548 5.77689C17.6363 6.91461 18.3 8.45769 18.3 10.0667V14.4C18.3 15.0896 18.5845 15.7509 19.0908 16.2385C19.5972 16.7261 20.2839 17 21 17Z" fill="#CFA6FF"/>
<path d="M12 4.28572C10.4087 4.28572 8.88256 4.91786 7.75735 6.04307C6.63213 7.16829 5.99999 8.69442 5.99999 10.2857V14.5714C5.99999 15.2534 5.72907 15.9075 5.24683 16.3897C4.7646 16.8719 4.11054 17.1429 3.42856 17.1429H20.5714C19.8894 17.1429 19.2354 16.8719 18.7531 16.3897C18.2709 15.9075 18 15.2534 18 14.5714V10.2857C18 8.69442 17.3678 7.16829 16.2426 6.04307C15.1174 4.91786 13.5913 4.28572 12 4.28572ZM12 4.28572V1.71429M13.4828 20.5714C13.3321 20.8312 13.1159 21.0468 12.8556 21.1967C12.5954 21.3466 12.3003 21.4255 12 21.4255C11.6997 21.4255 11.4046 21.3466 11.1444 21.1967C10.8841 21.0468 10.6678 20.8312 10.5171 20.5714" stroke="#CFA6FF" stroke-linecap="round" stroke-linejoin="round"/>
</svg>
