<svg width="24" height="24" viewBox="0 0 24 24" fill="none" xmlns="http://www.w3.org/2000/svg">
<path d="M0.5 2.66667C0.5 1.47005 1.47005 0.5 2.66667 0.5H21.3333C22.53 0.5 23.5 1.47005 23.5 2.66667V21.3333C23.5 22.53 22.53 23.5 21.3333 23.5H2.66667C1.47005 23.5 0.5 22.53 0.5 21.3333V2.66667Z" fill="white" stroke="#BEC9D4"/>
<path d="M10.6558 10.92C10.5398 10.78 10.4038 10.674 10.2478 10.602C10.0918 10.53 9.90584 10.494 9.68984 10.494C8.91784 10.494 8.53184 11.032 8.53184 12.108C8.53184 13.072 8.91584 13.554 9.68384 13.554C9.91584 13.554 10.1338 13.526 10.3378 13.47C10.5458 13.414 10.7398 13.348 10.9198 13.272L11.1178 13.944C11.0258 13.996 10.9218 14.044 10.8058 14.088C10.6898 14.132 10.5658 14.17 10.4338 14.202C10.3058 14.23 10.1718 14.252 10.0318 14.268C9.89584 14.284 9.76184 14.292 9.62984 14.292C8.91784 14.292 8.40584 14.098 8.09384 13.71C7.78584 13.318 7.63184 12.764 7.63184 12.048C7.63184 11.3 7.80784 10.74 8.15984 10.368C8.51184 9.99196 9.01184 9.80396 9.65984 9.80396C9.79584 9.80396 9.93384 9.81596 10.0738 9.83996C10.2138 9.86396 10.3498 9.90196 10.4818 9.95396C10.6138 10.002 10.7378 10.064 10.8538 10.14C10.9738 10.216 11.0798 10.308 11.1718 10.416L10.6558 10.92Z" fill="#56606B"/>
<path d="M11.8792 9.86996H13.5832C14.0792 9.86996 14.4592 9.96996 14.7232 10.17C14.9912 10.37 15.1252 10.694 15.1252 11.142C15.1252 11.442 15.0632 11.688 14.9392 11.88C14.8192 12.068 14.6512 12.214 14.4352 12.318C14.4192 12.326 14.4032 12.334 14.3872 12.342C14.3712 12.35 14.3532 12.358 14.3332 12.366L15.2632 14.22H14.3212L13.4752 12.504H12.7432V14.22H11.8792V9.86996ZM12.7432 10.56V11.832H13.5472C13.6312 11.832 13.7132 11.822 13.7932 11.802C13.8772 11.778 13.9512 11.74 14.0152 11.688C14.0792 11.632 14.1312 11.56 14.1712 11.472C14.2112 11.384 14.2312 11.274 14.2312 11.142C14.2312 11.03 14.2092 10.936 14.1652 10.86C14.1252 10.784 14.0712 10.724 14.0032 10.68C13.9392 10.636 13.8652 10.606 13.7812 10.59C13.7012 10.57 13.6232 10.56 13.5472 10.56H12.7432Z" fill="#56606B"/>
<path d="M15.8826 9.86996H17.4246L18.2346 13.548H18.2826L19.0626 9.86996H20.5626V14.22H19.6926V10.542H19.6326L18.8046 14.22H17.6526L16.8126 10.542H16.7586V14.22H15.8826V9.86996Z" fill="#56606B"/>
<path d="M3.4082 9.87H4.2782V12.552C4.2782 12.884 4.3382 13.146 4.4582 13.338C4.5822 13.526 4.7862 13.62 5.0702 13.62C5.2382 13.62 5.3802 13.6 5.4962 13.56C5.6122 13.516 5.7062 13.448 5.7782 13.356C5.8542 13.26 5.9082 13.138 5.9402 12.99C5.9722 12.838 5.9882 12.654 5.9882 12.438V9.87H6.8582V12.492C6.8582 12.808 6.8182 13.08 6.7382 13.308C6.6622 13.532 6.5482 13.718 6.3962 13.866C6.2442 14.01 6.0562 14.118 5.8322 14.19C5.6122 14.258 5.3602 14.292 5.0762 14.292C4.5162 14.292 4.0982 14.148 3.8222 13.86C3.5462 13.572 3.4082 13.1 3.4082 12.444V9.87Z" fill="#F92465"/>
</svg>
