<svg width="24" height="24" viewBox="0 0 24 24" fill="none" xmlns="http://www.w3.org/2000/svg">
<path d="M13.7143 3.42871H6.85711C6.40245 3.42871 5.96642 3.60932 5.64492 3.93081C5.32343 4.2523 5.14282 4.68834 5.14282 5.143V18.8573C5.14282 19.3119 5.32343 19.748 5.64492 20.0695C5.96642 20.391 6.40245 20.5716 6.85711 20.5716H17.1428C17.5975 20.5716 18.0335 20.391 18.355 20.0695C18.6765 19.748 18.8571 19.3119 18.8571 18.8573V8.57157M13.7143 3.42871L18.8571 8.57157M13.7143 3.42871V8.57157H18.8571M15.4285 12.8573H8.57139M15.4285 16.2859H8.57139M10.2857 9.42871H8.57139" stroke="#56606B" stroke-linecap="round" stroke-linejoin="round"/>
</svg>
