<svg width="24" height="24" viewBox="0 0 24 24" fill="none" xmlns="http://www.w3.org/2000/svg">
<path d="M12.0001 4.28566C10.4088 4.28566 8.88272 4.9178 7.7575 6.04302C6.63228 7.16824 6.00014 8.69436 6.00014 10.2857V14.5714C6.00014 15.2534 5.72922 15.9074 5.24699 16.3897C4.76475 16.8719 4.1107 17.1428 3.42871 17.1428H20.5716C19.8896 17.1428 19.2355 16.8719 18.7533 16.3897C18.2711 15.9074 18.0001 15.2534 18.0001 14.5714V10.2857C18.0001 8.69436 17.368 7.16824 16.2428 6.04302C15.1176 4.9178 13.5914 4.28566 12.0001 4.28566ZM12.0001 4.28566V1.71423M13.483 20.5714C13.3323 20.8312 13.116 21.0468 12.8558 21.1967C12.5955 21.3466 12.3005 21.4255 12.0001 21.4255C11.6998 21.4255 11.4048 21.3466 11.1445 21.1967C10.8843 21.0468 10.668 20.8312 10.5173 20.5714" stroke="#70747D" stroke-linecap="round" stroke-linejoin="round"/>
</svg>
