<svg width="19" height="19" viewBox="0 0 19 19" fill="none" xmlns="http://www.w3.org/2000/svg">
<mask id="path-1-inside-1" fill="white">
<path d="M9.49993 2.71422C5.75228 2.71422 2.71422 5.75228 2.71422 9.49993C2.71422 13.2476 5.75228 16.2856 9.49993 16.2856C13.2476 16.2856 16.2856 13.2476 16.2856 9.49993C16.2856 5.75228 13.2476 2.71422 9.49993 2.71422Z"/>
</mask>
<path d="M8.99993 12.2142C8.99993 12.4904 9.22379 12.7142 9.49993 12.7142C9.77607 12.7142 9.99993 12.4904 9.99993 12.2142H8.99993ZM9.99993 9.49993C9.99993 9.22379 9.77607 8.99993 9.49993 8.99993C9.22379 8.99993 8.99993 9.22379 8.99993 9.49993H9.99993ZM9.99993 12.2142V9.49993H8.99993V12.2142H9.99993ZM3.71422 9.49993C3.71422 6.30457 6.30457 3.71422 9.49993 3.71422V1.71422C5.2 1.71422 1.71422 5.2 1.71422 9.49993H3.71422ZM9.49993 3.71422C12.6953 3.71422 15.2856 6.30457 15.2856 9.49993H17.2856C17.2856 5.2 13.7999 1.71422 9.49993 1.71422V3.71422ZM15.2856 9.49993C15.2856 12.6953 12.6953 15.2856 9.49993 15.2856V17.2856C13.7999 17.2856 17.2856 13.7999 17.2856 9.49993H15.2856ZM9.49993 15.2856C6.30457 15.2856 3.71422 12.6953 3.71422 9.49993H1.71422C1.71422 13.7999 5.2 17.2856 9.49993 17.2856V15.2856Z" fill="#7B558D" mask="url(#path-1-inside-1)"/>
<mask id="path-3-inside-2" fill="white">
<path d="M8.82157 6.78578C8.82157 6.41102 9.12538 6.10721 9.50014 6.10721C9.8749 6.10721 10.1787 6.41102 10.1787 6.78578C10.1787 7.16055 9.8749 7.46436 9.50014 7.46436C9.12538 7.46436 8.82157 7.16055 8.82157 6.78578Z"/>
</mask>
<path d="M8.82157 6.78578C8.82157 6.41102 9.12538 6.10721 9.50014 6.10721C9.8749 6.10721 10.1787 6.41102 10.1787 6.78578C10.1787 7.16055 9.8749 7.46436 9.50014 7.46436C9.12538 7.46436 8.82157 7.16055 8.82157 6.78578Z" fill="#7B558D"/>
<path d="M9.82157 6.78578C9.82157 6.9633 9.67766 7.10721 9.50014 7.10721V5.10721C8.57309 5.10721 7.82157 5.85873 7.82157 6.78578H9.82157ZM9.50014 7.10721C9.32262 7.10721 9.17871 6.9633 9.17871 6.78578H11.1787C11.1787 5.85873 10.4272 5.10721 9.50014 5.10721V7.10721ZM9.17871 6.78578C9.17871 6.60826 9.32262 6.46436 9.50014 6.46436V8.46436C10.4272 8.46436 11.1787 7.71283 11.1787 6.78578H9.17871ZM9.50014 6.46436C9.67766 6.46436 9.82157 6.60826 9.82157 6.78578H7.82157C7.82157 7.71283 8.57309 8.46436 9.50014 8.46436V6.46436Z" fill="#7B558D" mask="url(#path-3-inside-2)"/>
</svg>
