<svg width="24" height="24" viewBox="0 0 24 24" fill="none" xmlns="http://www.w3.org/2000/svg">
<path d="M13.7143 3.42863H6.85711C6.40245 3.42863 5.96642 3.60925 5.64492 3.93074C5.32343 4.25223 5.14282 4.68826 5.14282 5.14292V18.8572C5.14282 19.3119 5.32343 19.7479 5.64492 20.0694C5.96642 20.3909 6.40245 20.5715 6.85711 20.5715H17.1428C17.5975 20.5715 18.0335 20.3909 18.355 20.0694C18.6765 19.7479 18.8571 19.3119 18.8571 18.8572V8.57149M13.7143 3.42863L18.8571 8.57149M13.7143 3.42863V8.57149H18.8571M15.4285 12.8572H8.57139M15.4285 16.2858H8.57139M10.2857 9.42864H8.57139" stroke="#C2C5CE" stroke-linecap="round" stroke-linejoin="round"/>
</svg>
