<svg width="328" height="612" viewBox="0 0 328 612" fill="none" xmlns="http://www.w3.org/2000/svg">
<path d="M0 0H242V32H0V0Z" fill="url(#paint0_linear)"/>
<path d="M0 47H156V65H0V47Z" fill="url(#paint1_linear)"/>
<path d="M0 80H328V94H0V80Z" fill="url(#paint2_linear)"/>
<rect y="110" width="328" height="263" rx="8" fill="#F5F7FA"/>
<path d="M16 126H156V140H16V126Z" fill="url(#paint3_linear)"/>
<path d="M172 126H312V140H172V126Z" fill="url(#paint4_linear)"/>
<path d="M16 156H312V157H16V156Z" fill="url(#paint5_linear)"/>
<path d="M44 187C44 194.732 37.732 201 30 201C22.268 201 16 194.732 16 187C16 179.268 22.268 173 30 173C37.732 173 44 179.268 44 187Z" fill="url(#paint6_linear)"/>
<path d="M60 180H178V194H60V180Z" fill="url(#paint7_linear)"/>
<path d="M194 180H312V194H194V180Z" fill="url(#paint8_linear)"/>
<path d="M44 239C44 246.732 37.732 253 30 253C22.268 253 16 246.732 16 239C16 231.268 22.268 225 30 225C37.732 225 44 231.268 44 239Z" fill="url(#paint9_linear)"/>
<path d="M60 232H178V246H60V232Z" fill="url(#paint10_linear)"/>
<path d="M194 232H312V246H194V232Z" fill="url(#paint11_linear)"/>
<path d="M44 291C44 298.732 37.732 305 30 305C22.268 305 16 298.732 16 291C16 283.268 22.268 277 30 277C37.732 277 44 283.268 44 291Z" fill="url(#paint12_linear)"/>
<path d="M60 284H178V298H60V284Z" fill="url(#paint13_linear)"/>
<path d="M194 284H312V298H194V284Z" fill="url(#paint14_linear)"/>
<path d="M44 343C44 350.732 37.732 357 30 357C22.268 357 16 350.732 16 343C16 335.268 22.268 329 30 329C37.732 329 44 335.268 44 343Z" fill="url(#paint15_linear)"/>
<path d="M60 336H178V350H60V336Z" fill="url(#paint16_linear)"/>
<path d="M194 336H312V350H194V336Z" fill="url(#paint17_linear)"/>
<rect y="389" width="328" height="183" rx="8" fill="#F5F7FA"/>
<path d="M16 405H156V419H16V405Z" fill="url(#paint18_linear)"/>
<path d="M16 435H312V436H16V435Z" fill="url(#paint19_linear)"/>
<path d="M16 452H156V466H16V452Z" fill="url(#paint20_linear)"/>
<path d="M172 452H312V466H172V452Z" fill="url(#paint21_linear)"/>
<path d="M16 482H156V496H16V482Z" fill="url(#paint22_linear)"/>
<path d="M172 482H312V496H172V482Z" fill="url(#paint23_linear)"/>
<path d="M16 512H156V526H16V512Z" fill="url(#paint24_linear)"/>
<path d="M172 512H312V526H172V512Z" fill="url(#paint25_linear)"/>
<path d="M16 542H156V556H16V542Z" fill="url(#paint26_linear)"/>
<path d="M172 542H312V556H172V542Z" fill="url(#paint27_linear)"/>
<rect y="588" width="328" height="183" rx="8" fill="#F5F7FA"/>
<path d="M16 604H156V618H16V604Z" fill="url(#paint28_linear)"/>
<defs>
<linearGradient id="paint0_linear" x1="-1.26442e-06" y1="202" x2="328" y2="318.5" gradientUnits="userSpaceOnUse">
<stop offset="0.172948" stop-color="#DAE3ED"/>
<stop offset="0.457984" stop-color="#F5F7FA"/>
<stop offset="0.719479" stop-color="#DAE3ED"/>
</linearGradient>
<linearGradient id="paint1_linear" x1="-5.14902e-06" y1="205" x2="328" y2="321.5" gradientUnits="userSpaceOnUse">
<stop offset="0.172948" stop-color="#DAE3ED"/>
<stop offset="0.457984" stop-color="#F5F7FA"/>
<stop offset="0.719479" stop-color="#DAE3ED"/>
</linearGradient>
<linearGradient id="paint2_linear" x1="-4.38365e-06" y1="207" x2="328" y2="323.5" gradientUnits="userSpaceOnUse">
<stop offset="0.172948" stop-color="#DAE3ED"/>
<stop offset="0.457984" stop-color="#F5F7FA"/>
<stop offset="0.719479" stop-color="#DAE3ED"/>
</linearGradient>
<linearGradient id="paint3_linear" x1="2.84288e-06" y1="203" x2="328" y2="319.5" gradientUnits="userSpaceOnUse">
<stop offset="0.172948" stop-color="#DAE3ED"/>
<stop offset="0.457984" stop-color="#F5F7FA"/>
<stop offset="0.719479" stop-color="#DAE3ED"/>
</linearGradient>
<linearGradient id="paint4_linear" x1="156" y1="203" x2="484" y2="319.5" gradientUnits="userSpaceOnUse">
<stop offset="0.172948" stop-color="#DAE3ED"/>
<stop offset="0.457984" stop-color="#F5F7FA"/>
<stop offset="0.719479" stop-color="#DAE3ED"/>
</linearGradient>
<linearGradient id="paint5_linear" x1="-2.02354e-06" y1="202" x2="328" y2="318.5" gradientUnits="userSpaceOnUse">
<stop offset="0.172948" stop-color="#DAE3ED"/>
<stop offset="0.457984" stop-color="#F5F7FA"/>
<stop offset="0.719479" stop-color="#DAE3ED"/>
</linearGradient>
<linearGradient id="paint6_linear" x1="-3" y1="195" x2="325" y2="311.5" gradientUnits="userSpaceOnUse">
<stop offset="0.172948" stop-color="#DAE3ED"/>
<stop offset="0.457984" stop-color="#F5F7FA"/>
<stop offset="0.719479" stop-color="#DAE3ED"/>
</linearGradient>
<linearGradient id="paint7_linear" x1="-19.9355" y1="195" x2="369.621" y2="370.558" gradientUnits="userSpaceOnUse">
<stop offset="0.172948" stop-color="#DAE3ED"/>
<stop offset="0.457984" stop-color="#F5F7FA"/>
<stop offset="0.719479" stop-color="#DAE3ED"/>
</linearGradient>
<linearGradient id="paint8_linear" x1="49.0286" y1="195" x2="334.755" y2="280.537" gradientUnits="userSpaceOnUse">
<stop offset="0.172948" stop-color="#DAE3ED"/>
<stop offset="0.457984" stop-color="#F5F7FA"/>
<stop offset="0.719479" stop-color="#DAE3ED"/>
</linearGradient>
<linearGradient id="paint9_linear" x1="-3" y1="247" x2="325" y2="363.5" gradientUnits="userSpaceOnUse">
<stop offset="0.172948" stop-color="#DAE3ED"/>
<stop offset="0.457984" stop-color="#F5F7FA"/>
<stop offset="0.719479" stop-color="#DAE3ED"/>
</linearGradient>
<linearGradient id="paint10_linear" x1="-19.9355" y1="247" x2="369.621" y2="422.558" gradientUnits="userSpaceOnUse">
<stop offset="0.172948" stop-color="#DAE3ED"/>
<stop offset="0.457984" stop-color="#F5F7FA"/>
<stop offset="0.719479" stop-color="#DAE3ED"/>
</linearGradient>
<linearGradient id="paint11_linear" x1="49.0286" y1="247" x2="334.755" y2="332.537" gradientUnits="userSpaceOnUse">
<stop offset="0.172948" stop-color="#DAE3ED"/>
<stop offset="0.457984" stop-color="#F5F7FA"/>
<stop offset="0.719479" stop-color="#DAE3ED"/>
</linearGradient>
<linearGradient id="paint12_linear" x1="-3" y1="299" x2="325" y2="415.5" gradientUnits="userSpaceOnUse">
<stop offset="0.172948" stop-color="#DAE3ED"/>
<stop offset="0.457984" stop-color="#F5F7FA"/>
<stop offset="0.719479" stop-color="#DAE3ED"/>
</linearGradient>
<linearGradient id="paint13_linear" x1="-19.9355" y1="299" x2="369.621" y2="474.558" gradientUnits="userSpaceOnUse">
<stop offset="0.172948" stop-color="#DAE3ED"/>
<stop offset="0.457984" stop-color="#F5F7FA"/>
<stop offset="0.719479" stop-color="#DAE3ED"/>
</linearGradient>
<linearGradient id="paint14_linear" x1="49.0286" y1="299" x2="334.755" y2="384.537" gradientUnits="userSpaceOnUse">
<stop offset="0.172948" stop-color="#DAE3ED"/>
<stop offset="0.457984" stop-color="#F5F7FA"/>
<stop offset="0.719479" stop-color="#DAE3ED"/>
</linearGradient>
<linearGradient id="paint15_linear" x1="-3" y1="351" x2="325" y2="467.5" gradientUnits="userSpaceOnUse">
<stop offset="0.172948" stop-color="#DAE3ED"/>
<stop offset="0.457984" stop-color="#F5F7FA"/>
<stop offset="0.719479" stop-color="#DAE3ED"/>
</linearGradient>
<linearGradient id="paint16_linear" x1="-19.9355" y1="351" x2="369.621" y2="526.558" gradientUnits="userSpaceOnUse">
<stop offset="0.172948" stop-color="#DAE3ED"/>
<stop offset="0.457984" stop-color="#F5F7FA"/>
<stop offset="0.719479" stop-color="#DAE3ED"/>
</linearGradient>
<linearGradient id="paint17_linear" x1="49.0286" y1="351" x2="334.755" y2="436.537" gradientUnits="userSpaceOnUse">
<stop offset="0.172948" stop-color="#DAE3ED"/>
<stop offset="0.457984" stop-color="#F5F7FA"/>
<stop offset="0.719479" stop-color="#DAE3ED"/>
</linearGradient>
<linearGradient id="paint18_linear" x1="2.84288e-06" y1="482" x2="328" y2="598.5" gradientUnits="userSpaceOnUse">
<stop offset="0.172948" stop-color="#DAE3ED"/>
<stop offset="0.457984" stop-color="#F5F7FA"/>
<stop offset="0.719479" stop-color="#DAE3ED"/>
</linearGradient>
<linearGradient id="paint19_linear" x1="-2.02354e-06" y1="481" x2="328" y2="597.5" gradientUnits="userSpaceOnUse">
<stop offset="0.172948" stop-color="#DAE3ED"/>
<stop offset="0.457984" stop-color="#F5F7FA"/>
<stop offset="0.719479" stop-color="#DAE3ED"/>
</linearGradient>
<linearGradient id="paint20_linear" x1="-78.8387" y1="467" x2="353.59" y2="698.213" gradientUnits="userSpaceOnUse">
<stop offset="0.172948" stop-color="#DAE3ED"/>
<stop offset="0.457984" stop-color="#F5F7FA"/>
<stop offset="0.719479" stop-color="#DAE3ED"/>
</linearGradient>
<linearGradient id="paint21_linear" x1="-1.0077e-05" y1="467" x2="328" y2="583.5" gradientUnits="userSpaceOnUse">
<stop offset="0.172948" stop-color="#DAE3ED"/>
<stop offset="0.457984" stop-color="#F5F7FA"/>
<stop offset="0.719479" stop-color="#DAE3ED"/>
</linearGradient>
<linearGradient id="paint22_linear" x1="-78.8387" y1="497" x2="353.59" y2="728.213" gradientUnits="userSpaceOnUse">
<stop offset="0.172948" stop-color="#DAE3ED"/>
<stop offset="0.457984" stop-color="#F5F7FA"/>
<stop offset="0.719479" stop-color="#DAE3ED"/>
</linearGradient>
<linearGradient id="paint23_linear" x1="-1.0077e-05" y1="497" x2="328" y2="613.5" gradientUnits="userSpaceOnUse">
<stop offset="0.172948" stop-color="#DAE3ED"/>
<stop offset="0.457984" stop-color="#F5F7FA"/>
<stop offset="0.719479" stop-color="#DAE3ED"/>
</linearGradient>
<linearGradient id="paint24_linear" x1="-78.8387" y1="527" x2="353.59" y2="758.213" gradientUnits="userSpaceOnUse">
<stop offset="0.172948" stop-color="#DAE3ED"/>
<stop offset="0.457984" stop-color="#F5F7FA"/>
<stop offset="0.719479" stop-color="#DAE3ED"/>
</linearGradient>
<linearGradient id="paint25_linear" x1="-1.0077e-05" y1="527" x2="328" y2="643.5" gradientUnits="userSpaceOnUse">
<stop offset="0.172948" stop-color="#DAE3ED"/>
<stop offset="0.457984" stop-color="#F5F7FA"/>
<stop offset="0.719479" stop-color="#DAE3ED"/>
</linearGradient>
<linearGradient id="paint26_linear" x1="-78.8387" y1="557" x2="353.59" y2="788.213" gradientUnits="userSpaceOnUse">
<stop offset="0.172948" stop-color="#DAE3ED"/>
<stop offset="0.457984" stop-color="#F5F7FA"/>
<stop offset="0.719479" stop-color="#DAE3ED"/>
</linearGradient>
<linearGradient id="paint27_linear" x1="-1.0077e-05" y1="557" x2="328" y2="673.5" gradientUnits="userSpaceOnUse">
<stop offset="0.172948" stop-color="#DAE3ED"/>
<stop offset="0.457984" stop-color="#F5F7FA"/>
<stop offset="0.719479" stop-color="#DAE3ED"/>
</linearGradient>
<linearGradient id="paint28_linear" x1="2.84288e-06" y1="681" x2="328" y2="797.5" gradientUnits="userSpaceOnUse">
<stop offset="0.172948" stop-color="#DAE3ED"/>
<stop offset="0.457984" stop-color="#F5F7FA"/>
<stop offset="0.719479" stop-color="#DAE3ED"/>
</linearGradient>
</defs>
</svg>
